<svg xmlns="http://www.w3.org/2000/svg" class="icon" viewBox="0 0 19.9 14.99"><title>alarm</title><g id="Layer_2" data-name="Layer 2"><g id="Layer_1-2" data-name="Layer 1"><path class="cls-1" d="M10,15a7.42,7.42,0,1,1,7.42-7.42A7.42,7.42,0,0,1,10,15ZM10,.91a6.67,6.67,0,1,0,6.67,6.67A6.67,6.67,0,0,0,10,.91Z"/><path class="cls-1" d="M6.88,11.13l-.53-.53L9.58,7.41V1.94h.75V7.57a.37.37,0,0,1-.11.27Z"/><path class="cls-1" d="M.75,7.68H0V7.3a9.89,9.89,0,0,1,2.91-7L3.18,0l.53.53L3.45.8A9.14,9.14,0,0,0,.75,7.3Z"/><path class="cls-1" d="M19.9,7.68h-.75V7.3A9.14,9.14,0,0,0,16.46.8L16.19.53,16.72,0,17,.26a9.89,9.89,0,0,1,2.91,7Z"/><path class="cls-1" d="M.75,7.68H0V7.3a9.89,9.89,0,0,1,2.91-7L3.18,0l.53.53L3.45.8A9.14,9.14,0,0,0,.75,7.3Z"/><path class="cls-1" d="M19.9,7.68h-.75V7.3A9.14,9.14,0,0,0,16.46.8L16.19.53,16.72,0,17,.26a9.89,9.89,0,0,1,2.91,7Z"/></g></g></svg>