<svg xmlns="http://www.w3.org/2000/svg" class="icon" viewBox="0 0 18.46 15.51"><title>appletv</title><g id="Layer_2" data-name="Layer 2"><g id="Layer_1-2" data-name="Layer 1"><path class="cls-1" d="M8.44,1.92H3.23A3.23,3.23,0,0,0,0,5.15v5.21a3.23,3.23,0,0,0,3.23,3.23H8.44a3.23,3.23,0,0,0,3.22-3.23V5.15A3.23,3.23,0,0,0,8.44,1.92Zm2.47,8.44a2.48,2.48,0,0,1-2.47,2.48H3.23A2.48,2.48,0,0,1,.75,10.36V5.15A2.48,2.48,0,0,1,3.23,2.67H8.44a2.48,2.48,0,0,1,2.47,2.48Z"/><path class="cls-1" d="M18.09,0H12.83a.38.38,0,0,0-.37.38V15.14a.38.38,0,0,0,.38.38h5.26a.38.38,0,0,0,.38-.37V.38A.38.38,0,0,0,18.09,0Zm-.37.75V5H13.21V.75Zm-4.51,14v-9h4.51v9Z"/><path class="cls-1" d="M15.46,6.82a1.72,1.72,0,1,0,1.72,1.72A1.72,1.72,0,0,0,15.46,6.82Zm0,2.68a1,1,0,1,1,1-1A1,1,0,0,1,15.46,9.5Z"/></g></g></svg>