<svg xmlns="http://www.w3.org/2000/svg" class="icon" viewBox="0 0 21.75 12.25"><title>babycrib</title><g id="Layer_2" data-name="Layer 2"><g id="Layer_1-2" data-name="Layer 1"><path class="cls-1" d="M21.38,0A.38.38,0,0,0,21,.38v1H2.93v-1a.38.38,0,0,0-.75,0V9.51a1.45,1.45,0,0,0-.72-.2,1.47,1.47,0,1,0,1.47,1.47s0,0,0-.07a.35.35,0,0,0,0,0v-.6H19a1.45,1.45,0,0,0-.2.72,1.47,1.47,0,1,0,2.93,0s0,0,0-.07a.35.35,0,0,0,0,0V.38A.38.38,0,0,0,21.38,0ZM21,7H19.3V2.13H21ZM16.51,7V2.13h2V7ZM13.73,7V2.13h2V7ZM11,7V2.13h2V7ZM8.17,7V2.13h2V7ZM5.39,7V2.13h2V7ZM4.64,2.13V7H2.93V2.13ZM1.47,11.5a.72.72,0,1,1,.72-.72A.72.72,0,0,1,1.47,11.5ZM2.93,7.77H21V9.31H2.93ZM20.28,11.5a.72.72,0,1,1,.72-.72A.72.72,0,0,1,20.28,11.5Z"/></g></g></svg>