<svg xmlns="http://www.w3.org/2000/svg" class="icon" viewBox="0 0 21.75 18.88" class="icon"><path d="M12.14,3.56l-.06.37.74.12.06-.37A4.74,4.74,0,0,0,12.8,2,4,4,0,0,1,12.72.49l.06-.37L12,0,12,.37a4.7,4.7,0,0,0,.08,1.71A4.07,4.07,0,0,1,12.14,3.56Z"/><path d="M14.32,3.56l-.06.37.74.12.06-.37A4.74,4.74,0,0,0,15,2,4,4,0,0,1,14.9.49L15,.12,14.22,0l-.06.37a4.7,4.7,0,0,0,.08,1.71A4.07,4.07,0,0,1,14.32,3.56Z"/><path d="M16.5,3.56l-.06.37.74.12.06-.37A4.74,4.74,0,0,0,17.16,2,4,4,0,0,1,17.08.49l.06-.37L16.4,0l-.06.37a4.7,4.7,0,0,0,.08,1.71A4.07,4.07,0,0,1,16.5,3.56Z"/><path d="M20.39,6.61c0-.07,0-.14,0-.21A.38.38,0,0,0,20,6H9.2a.38.38,0,0,0-.37.38,10.23,10.23,0,0,0,.45,3.12A7.81,7.81,0,0,0,0,17.18c0,.68.07,1.41.58,1.64a.73.73,0,0,0,.31.07c.54,0,1.17-.55,2.05-1.32A20.84,20.84,0,0,1,4.87,16h0a6.63,6.63,0,0,1,1.93-.95,3.63,3.63,0,0,1,2,0,6.6,6.6,0,0,1,1.93.95,20.69,20.69,0,0,1,1.93,1.54c.88.77,1.51,1.32,2.05,1.32a.73.73,0,0,0,.31-.07c.51-.23.58-1,.58-1.64a7.73,7.73,0,0,0-1-3.71H20.4v-.75H17.62a5,5,0,0,0,2.17-2.62l.18,0a1.77,1.77,0,0,0,.41-3.5ZM2.45,17c-.56.49-1.33,1.17-1.55,1.14,0,0-.15-.14-.15-1a7,7,0,0,1,1.09-3.76L3,14.55l1.11,1.11C3.49,16.1,2.94,16.57,2.45,17Zm2.26-1.77L2.37,12.89l-.09-.09a7,7,0,0,1,2.94-2.19l.51,1.89.53,2A7.48,7.48,0,0,0,4.71,15.23Zm3.95-1a4.26,4.26,0,0,0-1.69,0L6,10.69l-.09-.32a7,7,0,0,1,3.77,0Zm.72.2,1-3.85a7,7,0,0,1,2.94,2.19l-2.43,2.43A7.5,7.5,0,0,0,9.38,14.46Zm5.5,2.71c0,.82-.14,1-.13,1-.24,0-1-.64-1.57-1.13s-1-.9-1.63-1.34l1.11-1.11,1.09-1.09h.07A7,7,0,0,1,14.88,17.18Zm-.27-4.46c-.15,0-.28,0-.42,0l0-.06h0a7.77,7.77,0,0,0-3.87-2.85l-.11,0a8.53,8.53,0,0,1-.58-3H19.64C19.54,10.66,17.8,12.71,14.61,12.71Zm6-3.54a1,1,0,0,1-.52.17,10.14,10.14,0,0,0,.31-1.94,1,1,0,0,1,.21,1.77Z"/></svg>