<svg xmlns="http://www.w3.org/2000/svg" viewBox="0 0 21.79 18" class="icon"><path d="M10,8.93H10a7.59,7.59,0,0,1,3.78,2.78h.3c2.93,0,4.48-1.79,4.62-5.32H9.51A8,8,0,0,0,10,8.93Z" fill="none"/><path d="M20.05,7l-.26,0a10.16,10.16,0,0,1-.24,1.59l.22,0a.8.8,0,0,0,.93-.65A.8.8,0,0,0,20.05,7Z" fill="none"/><path d="M11.94,3.23l0,.18.35.06,0-.18a4.37,4.37,0,0,0-.07-1.6A4,4,0,0,1,12.15.23l0-.18L11.82,0l0,.18a4.33,4.33,0,0,0,.07,1.58A4,4,0,0,1,11.94,3.23Z"/><path d="M14,3.23l0,.18.35.06,0-.18a4.37,4.37,0,0,0-.07-1.6A4,4,0,0,1,14.23.23l0-.18L13.91,0l0,.18A4.33,4.33,0,0,0,14,1.75,4,4,0,0,1,14,3.23Z"/><path d="M16.11,3.23l0,.18.35.06,0-.18a4.38,4.38,0,0,0-.07-1.6A4,4,0,0,1,16.31.23l0-.18L16,0l0,.18A4.33,4.33,0,0,0,16,1.75,4,4,0,0,1,16.11,3.23Z"/><path d="M20.24,5.9l-.42-.07a.54.54,0,0,0-.53-.46H9a.54.54,0,0,0-.54.54,10.3,10.3,0,0,0,.35,2.74,7.61,7.61,0,0,0-3.54.3h0a7.6,7.6,0,0,0-3.79,2.78h0A7.58,7.58,0,0,0,0,16.19c0,.71.08,1.46.66,1.73A.89.89,0,0,0,1,18c.58,0,1.2-.55,2.07-1.3a19.71,19.71,0,0,1,1.83-1.46h0a6.13,6.13,0,0,1,1.79-.88,3.29,3.29,0,0,1,1.84,0,6.13,6.13,0,0,1,1.79.88h0a19.66,19.66,0,0,1,1.82,1.46c.87.76,1.5,1.3,2.07,1.3a.89.89,0,0,0,.37-.08c.58-.26.66-1,.66-1.73a7.56,7.56,0,0,0-.79-3.37h5.34V11.75H17.61a5.09,5.09,0,0,0,1.62-2.22l.36.06.33,0a1.88,1.88,0,0,0,.32-3.72ZM5,10.16l.89,3.32a7.35,7.35,0,0,0-1.23.62L2.6,12A6.52,6.52,0,0,1,5,10.16ZM2,12.89,3.8,14.72c-.51.39-1,.79-1.4,1.16a9.21,9.21,0,0,1-1.27,1,2.93,2.93,0,0,1-.06-.69A6.5,6.5,0,0,1,2,12.89Zm5,.32-.63-2.36-.27-1a6.49,6.49,0,0,1,3.16,0l-.91,3.38A4.19,4.19,0,0,0,7,13.2ZM12.68,12l-2.11,2.11a7.35,7.35,0,0,0-1.23-.62l.89-3.32A6.51,6.51,0,0,1,12.68,12Zm1.46,4.89a9.19,9.19,0,0,1-1.27-1c-.42-.37-.89-.78-1.4-1.16l1.84-1.84a6.5,6.5,0,0,1,.9,3.3A2.93,2.93,0,0,1,14.14,16.88Zm0-5.13h-.3A7.6,7.6,0,0,0,10,8.94H10a8,8,0,0,1-.48-2.49h9.23C18.6,10,17.05,11.75,14.13,11.75ZM20.7,7.88a.8.8,0,0,1-.93.65l-.22,0a10.16,10.16,0,0,0,.24-1.59l.26,0A.8.8,0,0,1,20.7,7.88Z"/></svg>