<svg xmlns="http://www.w3.org/2000/svg" class="icon" viewBox="0 0 20.75 16.46"><title>businesscenter</title><g id="Layer_2" data-name="Layer 2"><g id="Layer_1-2" data-name="Layer 1"><path class="cls-1" d="M20.38,7.49H.38A.38.38,0,0,0,0,7.87v8.59H.75V11.05H12.09v5a.38.38,0,0,0,.38.38h7.91a.38.38,0,0,0,.38-.37V7.87A.38.38,0,0,0,20.38,7.49ZM.75,10.3V8.24H12.09V10.3ZM20,15.71H12.84V11.05H20ZM12.84,10.3V8.24H20V10.3Z"/><rect class="cls-1" x="13.68" y="12.4" width="0.75" height="2.07"/><rect class="cls-1" x="15.19" y="8.87" width="2.28" height="0.75"/><path class="cls-1" d="M3,6.28H5v.27H4v.75h4.1V6.54h-1V6.28h2a1.2,1.2,0,0,0,1.19-1.2V1.19A1.2,1.2,0,0,0,9.14,0H3A1.2,1.2,0,0,0,1.8,1.19V5.08A1.2,1.2,0,0,0,3,6.28ZM2.55,1.19A.44.44,0,0,1,3,.75H9.14a.44.44,0,0,1,.44.44V5.08a.45.45,0,0,1-.44.45H3a.45.45,0,0,1-.44-.45Z"/></g></g></svg>