<svg xmlns="http://www.w3.org/2000/svg" class="icon" viewBox="0 0 17.75 18.6"><title>coffeemachine</title><g id="Layer_2" data-name="Layer 2"><g id="Layer_1-2" data-name="Layer 1"><path class="cls-1" d="M17.73,5.24A5.62,5.62,0,0,0,13,.08V0h-.38l-.51,0H.52A.38.38,0,0,0,.15.38V6.63A.38.38,0,0,0,.52,7h.82V8.48a.38.38,0,0,0,.38.38H8.66A.38.38,0,0,0,9,8.48V7H10v8.63H6.91c1.21-.74,1.9-2.21,1.9-4.25A.38.38,0,0,0,8.43,11H1.27a.38.38,0,0,0-.38.38s0,0,0,.07A1.29,1.29,0,0,0,0,12.89,1.31,1.31,0,0,0,1.3,14h0a3.43,3.43,0,0,0,1.37,1.67H.52A.38.38,0,0,0,.15,16v2.22a.38.38,0,0,0,.38.38H17.37a.38.38,0,0,0,.38-.37v-13Zm-17,7.52a.55.55,0,0,1,.18-.5,6.88,6.88,0,0,0,.15.9A.55.55,0,0,1,.76,12.76ZM13,.84A4.85,4.85,0,0,1,17,5.25a4.78,4.78,0,0,0-2.83.64A2,2,0,0,1,13,6.24ZM8.28,8.1H2.09V7h6.2ZM1.65,11.76H8c-.11,2.35-1.26,3.68-3.2,3.68S1.75,14.21,1.65,11.76ZM17,17.85H.9V16.38h9.44a.38.38,0,0,0,.38-.37V6.63a.38.38,0,0,0-.37-.37H.9V.75H12.27V16.44a.38.38,0,0,0,.38.38H17Zm0-1.79H13V7a2.75,2.75,0,0,0,1.5-.46A4.18,4.18,0,0,1,17,6Z"/></g></g></svg>