<svg xmlns="http://www.w3.org/2000/svg" viewBox="0 0 19.76 18" class="icon"><path d="M18.57,1H1.19S1,1.14,1,1.33V13.12c0,.19.11.29.15.29H18.57s.15-.1.15-.29V1.33C18.72,1.14,18.61,1,18.57,1ZM15.31,8.78,15.14,9c-.24.24-.27.54-.45.41l-.9-1.56.07-.09,1.73.48C15.76,8.37,15.48,8.48,15.31,8.78Z" fill="none"/><path d="M13.86,7.76l-.07.09.9,1.56c.17.13.21-.16.45-.41l.17-.22c.18-.29.45-.4.28-.53Z"/><path d="M18.57,0H1.19A1.27,1.27,0,0,0,0,1.33V13.12a1.27,1.27,0,0,0,1.19,1.33H7.6V17H5.73v1H14V17H12.16V14.45h6.4a1.27,1.27,0,0,0,1.19-1.33V1.33A1.27,1.27,0,0,0,18.57,0Zm.15,13.12c0,.19-.11.29-.15.29H1.19S1,13.31,1,13.12V1.33c0-.19.11-.29.15-.29H18.57s.15.1.15.29Z"/></svg>