<svg xmlns="http://www.w3.org/2000/svg" class="icon" viewBox="0 0 19.21 18.72"><title>fax</title><g id="Layer_2" data-name="Layer 2"><g id="Layer_1-2" data-name="Layer 1"><path class="cls-1" d="M17.59,6.42H15.67v-6A.38.38,0,0,0,15.29,0h-9A.38.38,0,0,0,6,.08L3.74,1.92a.38.38,0,0,0-.14.29V6.42h-2A1.62,1.62,0,0,0,0,8v9a1.62,1.62,0,0,0,1.62,1.62h16a1.62,1.62,0,0,0,1.62-1.62V8A1.62,1.62,0,0,0,17.59,6.42ZM14.92.75V9.29H4.35V2.39L6.4.75ZM18.46,17.1a.87.87,0,0,1-.87.87h-16a.87.87,0,0,1-.87-.87V8a.87.87,0,0,1,.87-.87h2V9.66A.38.38,0,0,0,4,10H15.29a.38.38,0,0,0,.38-.37V7.17h1.92a.87.87,0,0,1,.87.87Z"/><rect class="cls-1" x="6.27" y="5.66" width="6.68" height="0.75"/><path class="cls-1" d="M6.83,12.2h-.5a.38.38,0,0,0,0,.75h.5a.38.38,0,0,0,0-.75Z"/><path class="cls-1" d="M10,12.2h-.8a.38.38,0,0,0,0,.75H10a.37.37,0,0,0,0-.75Z"/><path class="cls-1" d="M12.94,12.2h-.5a.38.38,0,0,0,0,.75h.5a.38.38,0,0,0,0-.75Z"/><path class="cls-1" d="M6.83,14.94h-.5a.38.38,0,1,0,0,.75h.5a.38.38,0,0,0,0-.75Z"/><path class="cls-1" d="M10,14.94h-.8a.38.38,0,0,0,0,.75H10a.38.38,0,0,0,0-.75Z"/><path class="cls-1" d="M12.94,14.94h-.5a.38.38,0,0,0,0,.75h.5a.38.38,0,1,0,0-.75Z"/></g></g></svg>