<svg xmlns="http://www.w3.org/2000/svg" viewBox="0 0 21 10.32" class="icon"><rect class="cls-1" y="9.57" width="21" height="0.75"/><polygon class="cls-1" points="21 0.75 21 0 0 0 0 0.75 4.37 0.75 4.37 3.19 0 3.19 0 3.94 13.95 3.94 13.95 6.38 0 6.38 0 7.13 21 7.13 21 6.38 14.7 6.38 14.7 3.94 21 3.94 21 3.19 5.12 3.19 5.12 0.75 21 0.75"/><path class="cls-1" d="M12.68,5a.28.28,0,0,0,.25-.25.23.23,0,0,0-.08-.18.24.24,0,0,0-.35,0,.23.23,0,0,0,0,.35A.25.25,0,0,0,12.68,5Z"/><path class="cls-1" d="M12.5,5.77l.08,0a.16.16,0,0,0,.1,0,.22.22,0,0,0,.17-.07.25.25,0,0,0,.08-.18.23.23,0,0,0-.08-.17.24.24,0,0,0-.35,0,.23.23,0,0,0-.08.17A.25.25,0,0,0,12.5,5.77Z"/><path class="cls-1" d="M3.41,1.78a.24.24,0,0,0,.25-.25.15.15,0,0,0,0-.09.22.22,0,0,0-.05-.08.23.23,0,0,0-.27-.06.15.15,0,0,0-.08.06.15.15,0,0,0-.06.08.28.28,0,0,0,0,.09.25.25,0,0,0,.08.18A.22.22,0,0,0,3.41,1.78Z"/><path class="cls-1" d="M3.24,2.58l.08.05a.15.15,0,0,0,.09,0,.29.29,0,0,0,.18-.07.36.36,0,0,0,.05-.08.19.19,0,0,0,0-.1.25.25,0,0,0-.07-.18l-.08,0a.26.26,0,0,0-.27,0,.27.27,0,0,0-.08.18A.25.25,0,0,0,3.24,2.58Z"/></svg>