<svg xmlns="http://www.w3.org/2000/svg" class="icon" viewBox="0 0 21.5 10.04"><title>gym</title><g id="Layer_2" data-name="Layer 2"><g id="Layer_1-2" data-name="Layer 1"><path class="cls-1" d="M20.75,4.77a3.8,3.8,0,0,0-1.61-3.34A2.61,2.61,0,0,0,17,0c-1.65,0-2.95,2.08-3,4.77H9.38C9.3,2.08,8,0,6.35,0A2.64,2.64,0,0,0,4.17,1.51,4,4,0,0,0,2.7,4.77H0v.5H2.7A4,4,0,0,0,4.17,8.53,2.64,2.64,0,0,0,6.35,10C8,10,9.3,8,9.38,5.27H14C14.05,8,15.35,10,17,10a2.61,2.61,0,0,0,2.14-1.44,3.8,3.8,0,0,0,1.61-3.34h.75v-.5ZM3.2,5.27H4.92v-.5H3.2c.07-1.66.86-3,1.79-3S6.79,3.25,6.79,5,6,8.28,5,8.28,3.27,6.93,3.2,5.27ZM6.35,9.54a1.87,1.87,0,0,1-1.41-.77H5c1.29,0,2.3-1.65,2.3-3.76S6.28,1.26,5,1.26h0A1.87,1.87,0,0,1,6.35.5c1.4,0,2.54,2,2.54,4.52S7.75,9.54,6.35,9.54ZM17,9.54c-1.35,0-2.45-1.9-2.52-4.27h2.77v-.5H14.47C14.55,2.4,15.65.5,17,.5s2.54,2,2.54,4.52S18.4,9.54,17,9.54Zm2.66-2.12A7.69,7.69,0,0,0,20,5.27h.23A4.6,4.6,0,0,1,19.66,7.43ZM20,4.77a7.69,7.69,0,0,0-.36-2.15,4.6,4.6,0,0,1,.59,2.15Z"/></g></g></svg>