<svg xmlns="http://www.w3.org/2000/svg" class="icon" viewBox="0 0 18.76 17.48"><title>hairdryer</title><g id="Layer_2" data-name="Layer 2"><g id="Layer_1-2" data-name="Layer 1"><path class="cls-1" d="M18.43,1.37,4.9,0h0A4.85,4.85,0,0,0,3,9.36l1.81,6.57A2.22,2.22,0,0,0,7,17.48a2.64,2.64,0,0,0,.7-.1,2.3,2.3,0,0,0,1.74-2.74L8,9.4l10.38-1A.37.37,0,0,0,18.76,8V1.74A.37.37,0,0,0,18.43,1.37ZM8.77,14.84a1.56,1.56,0,0,1-1.22,1.82,1.56,1.56,0,0,1-2-.94L3.89,9.62a5,5,0,0,0,1,.1h0l2.39-.24ZM18,7.64,4.86,9a4.11,4.11,0,0,1,0-8.22L18,2.08Z"/><path class="cls-1" d="M2.67,4.86A2.54,2.54,0,1,0,5.22,2.32,2.55,2.55,0,0,0,2.67,4.86ZM5.22,3.07A1.79,1.79,0,1,1,3.42,4.86,1.8,1.8,0,0,1,5.22,3.07Z"/><path class="cls-1" d="M9.54,9.9a.37.37,0,1,0-.71.23l.51,1.56A.37.37,0,0,0,9.7,12l.12,0a.37.37,0,0,0,.24-.47Z"/></g></g></svg>