<svg xmlns="http://www.w3.org/2000/svg" class="icon" viewBox="0 0 18.75 13.76"><title>hanger</title><g id="Layer_2" data-name="Layer 2"><g id="Layer_1-2" data-name="Layer 1"><path class="cls-1" d="M18.37,13.76H.37a.38.38,0,0,1-.24-.67L9.37,5.64c1.78-1.44,2.24-2,2.06-3.19A2.06,2.06,0,0,0,10.7,1,1.59,1.59,0,0,0,9.48.77a2.3,2.3,0,0,0-1.54.84,1.65,1.65,0,0,0-.27,1.28l.06.37L7,3.38,6.93,3a2.4,2.4,0,0,1,.41-1.85A3.06,3.06,0,0,1,9.37,0a2.36,2.36,0,0,1,1.77.41,2.79,2.79,0,0,1,1,1.9c.24,1.61-.53,2.42-2.33,3.88L1.44,13H17.38l-6-5.29.5-.56,6.77,5.94a.38.38,0,0,1-.25.66Z"/></g></g></svg>