<svg xmlns="http://www.w3.org/2000/svg" style="display: none;">

<symbol id="icon-alarm" viewBox="0 0 19.9 14.99"><title>alarm</title><g id="Layer_2" data-name="Layer 2"><g id="Layer_1-2" data-name="Layer 1"><path class="cls-1" d="M10,15a7.42,7.42,0,1,1,7.42-7.42A7.42,7.42,0,0,1,10,15ZM10,.91a6.67,6.67,0,1,0,6.67,6.67A6.67,6.67,0,0,0,10,.91Z"/><path class="cls-1" d="M6.88,11.13l-.53-.53L9.58,7.41V1.94h.75V7.57a.37.37,0,0,1-.11.27Z"/><path class="cls-1" d="M.75,7.68H0V7.3a9.89,9.89,0,0,1,2.91-7L3.18,0l.53.53L3.45.8A9.14,9.14,0,0,0,.75,7.3Z"/><path class="cls-1" d="M19.9,7.68h-.75V7.3A9.14,9.14,0,0,0,16.46.8L16.19.53,16.72,0,17,.26a9.89,9.89,0,0,1,2.91,7Z"/><path class="cls-1" d="M.75,7.68H0V7.3a9.89,9.89,0,0,1,2.91-7L3.18,0l.53.53L3.45.8A9.14,9.14,0,0,0,.75,7.3Z"/><path class="cls-1" d="M19.9,7.68h-.75V7.3A9.14,9.14,0,0,0,16.46.8L16.19.53,16.72,0,17,.26a9.89,9.89,0,0,1,2.91,7Z"/></g></g></symbol>

<symbol id="icon-appletv" viewBox="0 0 18.46 15.51"><title>appletv</title><g id="Layer_2" data-name="Layer 2"><g id="Layer_1-2" data-name="Layer 1"><path class="cls-1" d="M8.44,1.92H3.23A3.23,3.23,0,0,0,0,5.15v5.21a3.23,3.23,0,0,0,3.23,3.23H8.44a3.23,3.23,0,0,0,3.22-3.23V5.15A3.23,3.23,0,0,0,8.44,1.92Zm2.47,8.44a2.48,2.48,0,0,1-2.47,2.48H3.23A2.48,2.48,0,0,1,.75,10.36V5.15A2.48,2.48,0,0,1,3.23,2.67H8.44a2.48,2.48,0,0,1,2.47,2.48Z"/><path class="cls-1" d="M18.09,0H12.83a.38.38,0,0,0-.37.38V15.14a.38.38,0,0,0,.38.38h5.26a.38.38,0,0,0,.38-.37V.38A.38.38,0,0,0,18.09,0Zm-.37.75V5H13.21V.75Zm-4.51,14v-9h4.51v9Z"/><path class="cls-1" d="M15.46,6.82a1.72,1.72,0,1,0,1.72,1.72A1.72,1.72,0,0,0,15.46,6.82Zm0,2.68a1,1,0,1,1,1-1A1,1,0,0,1,15.46,9.5Z"/></g></g></symbol>

<symbol id="icon-babycrib" viewBox="0 0 21.75 12.25"><title>babycrib</title><g id="Layer_2" data-name="Layer 2"><g id="Layer_1-2" data-name="Layer 1"><path class="cls-1" d="M21.38,0A.38.38,0,0,0,21,.38v1H2.93v-1a.38.38,0,0,0-.75,0V9.51a1.45,1.45,0,0,0-.72-.2,1.47,1.47,0,1,0,1.47,1.47s0,0,0-.07a.35.35,0,0,0,0,0v-.6H19a1.45,1.45,0,0,0-.2.72,1.47,1.47,0,1,0,2.93,0s0,0,0-.07a.35.35,0,0,0,0,0V.38A.38.38,0,0,0,21.38,0ZM21,7H19.3V2.13H21ZM16.51,7V2.13h2V7ZM13.73,7V2.13h2V7ZM11,7V2.13h2V7ZM8.17,7V2.13h2V7ZM5.39,7V2.13h2V7ZM4.64,2.13V7H2.93V2.13ZM1.47,11.5a.72.72,0,1,1,.72-.72A.72.72,0,0,1,1.47,11.5ZM2.93,7.77H21V9.31H2.93ZM20.28,11.5a.72.72,0,1,1,.72-.72A.72.72,0,0,1,20.28,11.5Z"/></g></g></symbol>

<symbol id="icon-breakfast" viewBox="0 0 21.75 18.88"><title>breakfast</title><path d="M12.14,3.56l-.06.37.74.12.06-.37A4.74,4.74,0,0,0,12.8,2,4,4,0,0,1,12.72.49l.06-.37L12,0,12,.37a4.7,4.7,0,0,0,.08,1.71A4.07,4.07,0,0,1,12.14,3.56Z"/><path d="M14.32,3.56l-.06.37.74.12.06-.37A4.74,4.74,0,0,0,15,2,4,4,0,0,1,14.9.49L15,.12,14.22,0l-.06.37a4.7,4.7,0,0,0,.08,1.71A4.07,4.07,0,0,1,14.32,3.56Z"/><path d="M16.5,3.56l-.06.37.74.12.06-.37A4.74,4.74,0,0,0,17.16,2,4,4,0,0,1,17.08.49l.06-.37L16.4,0l-.06.37a4.7,4.7,0,0,0,.08,1.71A4.07,4.07,0,0,1,16.5,3.56Z"/><path d="M20.39,6.61c0-.07,0-.14,0-.21A.38.38,0,0,0,20,6H9.2a.38.38,0,0,0-.37.38,10.23,10.23,0,0,0,.45,3.12A7.81,7.81,0,0,0,0,17.18c0,.68.07,1.41.58,1.64a.73.73,0,0,0,.31.07c.54,0,1.17-.55,2.05-1.32A20.84,20.84,0,0,1,4.87,16h0a6.63,6.63,0,0,1,1.93-.95,3.63,3.63,0,0,1,2,0,6.6,6.6,0,0,1,1.93.95,20.69,20.69,0,0,1,1.93,1.54c.88.77,1.51,1.32,2.05,1.32a.73.73,0,0,0,.31-.07c.51-.23.58-1,.58-1.64a7.73,7.73,0,0,0-1-3.71H20.4v-.75H17.62a5,5,0,0,0,2.17-2.62l.18,0a1.77,1.77,0,0,0,.41-3.5ZM2.45,17c-.56.49-1.33,1.17-1.55,1.14,0,0-.15-.14-.15-1a7,7,0,0,1,1.09-3.76L3,14.55l1.11,1.11C3.49,16.1,2.94,16.57,2.45,17Zm2.26-1.77L2.37,12.89l-.09-.09a7,7,0,0,1,2.94-2.19l.51,1.89.53,2A7.48,7.48,0,0,0,4.71,15.23Zm3.95-1a4.26,4.26,0,0,0-1.69,0L6,10.69l-.09-.32a7,7,0,0,1,3.77,0Zm.72.2,1-3.85a7,7,0,0,1,2.94,2.19l-2.43,2.43A7.5,7.5,0,0,0,9.38,14.46Zm5.5,2.71c0,.82-.14,1-.13,1-.24,0-1-.64-1.57-1.13s-1-.9-1.63-1.34l1.11-1.11,1.09-1.09h.07A7,7,0,0,1,14.88,17.18Zm-.27-4.46c-.15,0-.28,0-.42,0l0-.06h0a7.77,7.77,0,0,0-3.87-2.85l-.11,0a8.53,8.53,0,0,1-.58-3H19.64C19.54,10.66,17.8,12.71,14.61,12.71Zm6-3.54a1,1,0,0,1-.52.17,10.14,10.14,0,0,0,.31-1.94,1,1,0,0,1,.21,1.77Z"/></symbol>

<symbol id="icon-businesscenter" viewBox="0 0 20.75 16.46"><title>businesscenter</title><g id="Layer_2" data-name="Layer 2"><g id="Layer_1-2" data-name="Layer 1"><path class="cls-1" d="M20.38,7.49H.38A.38.38,0,0,0,0,7.87v8.59H.75V11.05H12.09v5a.38.38,0,0,0,.38.38h7.91a.38.38,0,0,0,.38-.37V7.87A.38.38,0,0,0,20.38,7.49ZM.75,10.3V8.24H12.09V10.3ZM20,15.71H12.84V11.05H20ZM12.84,10.3V8.24H20V10.3Z"/><rect class="cls-1" x="13.68" y="12.4" width="0.75" height="2.07"/><rect class="cls-1" x="15.19" y="8.87" width="2.28" height="0.75"/><path class="cls-1" d="M3,6.28H5v.27H4v.75h4.1V6.54h-1V6.28h2a1.2,1.2,0,0,0,1.19-1.2V1.19A1.2,1.2,0,0,0,9.14,0H3A1.2,1.2,0,0,0,1.8,1.19V5.08A1.2,1.2,0,0,0,3,6.28ZM2.55,1.19A.44.44,0,0,1,3,.75H9.14a.44.44,0,0,1,.44.44V5.08a.45.45,0,0,1-.44.45H3a.45.45,0,0,1-.44-.45Z"/></g></g></symbol>

<symbol id="icon-coffeemachine" viewBox="0 0 17.75 18.6"><title>coffeemachine</title><g id="Layer_2" data-name="Layer 2"><g id="Layer_1-2" data-name="Layer 1"><path class="cls-1" d="M17.73,5.24A5.62,5.62,0,0,0,13,.08V0h-.38l-.51,0H.52A.38.38,0,0,0,.15.38V6.63A.38.38,0,0,0,.52,7h.82V8.48a.38.38,0,0,0,.38.38H8.66A.38.38,0,0,0,9,8.48V7H10v8.63H6.91c1.21-.74,1.9-2.21,1.9-4.25A.38.38,0,0,0,8.43,11H1.27a.38.38,0,0,0-.38.38s0,0,0,.07A1.29,1.29,0,0,0,0,12.89,1.31,1.31,0,0,0,1.3,14h0a3.43,3.43,0,0,0,1.37,1.67H.52A.38.38,0,0,0,.15,16v2.22a.38.38,0,0,0,.38.38H17.37a.38.38,0,0,0,.38-.37v-13Zm-17,7.52a.55.55,0,0,1,.18-.5,6.88,6.88,0,0,0,.15.9A.55.55,0,0,1,.76,12.76ZM13,.84A4.85,4.85,0,0,1,17,5.25a4.78,4.78,0,0,0-2.83.64A2,2,0,0,1,13,6.24ZM8.28,8.1H2.09V7h6.2ZM1.65,11.76H8c-.11,2.35-1.26,3.68-3.2,3.68S1.75,14.21,1.65,11.76ZM17,17.85H.9V16.38h9.44a.38.38,0,0,0,.38-.37V6.63a.38.38,0,0,0-.37-.37H.9V.75H12.27V16.44a.38.38,0,0,0,.38.38H17Zm0-1.79H13V7a2.75,2.75,0,0,0,1.5-.46A4.18,4.18,0,0,1,17,6Z"/></g></g></symbol>

<symbol id="icon-computer" viewBox="0 0 19.75 16.71"><title>computer</title><path d="M13.1,7.61,13,7.7l.9,1.56c.17.13.21-.16.45-.41l.17-.22c.18-.29.45-.4.28-.53Z"/><path d="M17.38,0h-15A2.38,2.38,0,0,0,0,2.37v9.48a2.38,2.38,0,0,0,2.38,2.38H7.74V16H5.41v.75h8.93V16H11.9V14.23h5.48a2.38,2.38,0,0,0,2.38-2.37V2.37A2.38,2.38,0,0,0,17.38,0ZM19,11.86a1.63,1.63,0,0,1-1.62,1.63h-15A1.63,1.63,0,0,1,.75,11.86V2.37A1.63,1.63,0,0,1,2.38.75h15A1.63,1.63,0,0,1,19,2.37Z"/></symbol>

<symbol id="icon-fax" viewBox="0 0 19.21 18.72"><title>fax</title><g id="Layer_2" data-name="Layer 2"><g id="Layer_1-2" data-name="Layer 1"><path class="cls-1" d="M17.59,6.42H15.67v-6A.38.38,0,0,0,15.29,0h-9A.38.38,0,0,0,6,.08L3.74,1.92a.38.38,0,0,0-.14.29V6.42h-2A1.62,1.62,0,0,0,0,8v9a1.62,1.62,0,0,0,1.62,1.62h16a1.62,1.62,0,0,0,1.62-1.62V8A1.62,1.62,0,0,0,17.59,6.42ZM14.92.75V9.29H4.35V2.39L6.4.75ZM18.46,17.1a.87.87,0,0,1-.87.87h-16a.87.87,0,0,1-.87-.87V8a.87.87,0,0,1,.87-.87h2V9.66A.38.38,0,0,0,4,10H15.29a.38.38,0,0,0,.38-.37V7.17h1.92a.87.87,0,0,1,.87.87Z"/><rect class="cls-1" x="6.27" y="5.66" width="6.68" height="0.75"/><path class="cls-1" d="M6.83,12.2h-.5a.38.38,0,0,0,0,.75h.5a.38.38,0,0,0,0-.75Z"/><path class="cls-1" d="M10,12.2h-.8a.38.38,0,0,0,0,.75H10a.37.37,0,0,0,0-.75Z"/><path class="cls-1" d="M12.94,12.2h-.5a.38.38,0,0,0,0,.75h.5a.38.38,0,0,0,0-.75Z"/><path class="cls-1" d="M6.83,14.94h-.5a.38.38,0,1,0,0,.75h.5a.38.38,0,0,0,0-.75Z"/><path class="cls-1" d="M10,14.94h-.8a.38.38,0,0,0,0,.75H10a.38.38,0,0,0,0-.75Z"/><path class="cls-1" d="M12.94,14.94h-.5a.38.38,0,0,0,0,.75h.5a.38.38,0,1,0,0-.75Z"/></g></g></symbol>

<symbol id="icon-floor" viewBox="0 0 21 10.32"><title>floor</title><rect class="cls-1" y="9.57" width="21" height="0.75"/><polygon class="cls-1" points="21 0.75 21 0 0 0 0 0.75 4.37 0.75 4.37 3.19 0 3.19 0 3.94 13.95 3.94 13.95 6.38 0 6.38 0 7.13 21 7.13 21 6.38 14.7 6.38 14.7 3.94 21 3.94 21 3.19 5.12 3.19 5.12 0.75 21 0.75"/><path class="cls-1" d="M12.68,5a.28.28,0,0,0,.25-.25.23.23,0,0,0-.08-.18.24.24,0,0,0-.35,0,.23.23,0,0,0,0,.35A.25.25,0,0,0,12.68,5Z"/><path class="cls-1" d="M12.5,5.77l.08,0a.16.16,0,0,0,.1,0,.22.22,0,0,0,.17-.07.25.25,0,0,0,.08-.18.23.23,0,0,0-.08-.17.24.24,0,0,0-.35,0,.23.23,0,0,0-.08.17A.25.25,0,0,0,12.5,5.77Z"/><path class="cls-1" d="M3.41,1.78a.24.24,0,0,0,.25-.25.15.15,0,0,0,0-.09.22.22,0,0,0-.05-.08.23.23,0,0,0-.27-.06.15.15,0,0,0-.08.06.15.15,0,0,0-.06.08.28.28,0,0,0,0,.09.25.25,0,0,0,.08.18A.22.22,0,0,0,3.41,1.78Z"/><path class="cls-1" d="M3.24,2.58l.08.05a.15.15,0,0,0,.09,0,.29.29,0,0,0,.18-.07.36.36,0,0,0,.05-.08.19.19,0,0,0,0-.1.25.25,0,0,0-.07-.18l-.08,0a.26.26,0,0,0-.27,0,.27.27,0,0,0-.08.18A.25.25,0,0,0,3.24,2.58Z"/></symbol>

<symbol id="icon-fridge" viewBox="0 0 14.83 19.56"><title>fridge</title><g id="Layer_2" data-name="Layer 2"><g id="Layer_1-2" data-name="Layer 1"><path class="cls-1" d="M14.46,0H.38A.38.38,0,0,0,0,.38V17.69a.38.38,0,0,0,.38.38H.69v1.13a.38.38,0,0,0,.38.38H13.46a.38.38,0,0,0,.38-.37V18.06h.62a.38.38,0,0,0,.38-.37V.38A.38.38,0,0,0,14.46,0ZM.75.75H6.33L5,1.94H.75ZM13.08,18.81H1.44v-.75H13.08Zm1-1.5H.75V2.69H5.09a.37.37,0,0,0,.24-.09L7.48.75h6.6Z"/></g></g></symbol>

<symbol id="icon-gym" viewBox="0 0 21.5 10.04"><title>gym</title><g id="Layer_2" data-name="Layer 2"><g id="Layer_1-2" data-name="Layer 1"><path class="cls-1" d="M20.75,4.77a3.8,3.8,0,0,0-1.61-3.34A2.61,2.61,0,0,0,17,0c-1.65,0-2.95,2.08-3,4.77H9.38C9.3,2.08,8,0,6.35,0A2.64,2.64,0,0,0,4.17,1.51,4,4,0,0,0,2.7,4.77H0v.5H2.7A4,4,0,0,0,4.17,8.53,2.64,2.64,0,0,0,6.35,10C8,10,9.3,8,9.38,5.27H14C14.05,8,15.35,10,17,10a2.61,2.61,0,0,0,2.14-1.44,3.8,3.8,0,0,0,1.61-3.34h.75v-.5ZM3.2,5.27H4.92v-.5H3.2c.07-1.66.86-3,1.79-3S6.79,3.25,6.79,5,6,8.28,5,8.28,3.27,6.93,3.2,5.27ZM6.35,9.54a1.87,1.87,0,0,1-1.41-.77H5c1.29,0,2.3-1.65,2.3-3.76S6.28,1.26,5,1.26h0A1.87,1.87,0,0,1,6.35.5c1.4,0,2.54,2,2.54,4.52S7.75,9.54,6.35,9.54ZM17,9.54c-1.35,0-2.45-1.9-2.52-4.27h2.77v-.5H14.47C14.55,2.4,15.65.5,17,.5s2.54,2,2.54,4.52S18.4,9.54,17,9.54Zm2.66-2.12A7.69,7.69,0,0,0,20,5.27h.23A4.6,4.6,0,0,1,19.66,7.43ZM20,4.77a7.69,7.69,0,0,0-.36-2.15,4.6,4.6,0,0,1,.59,2.15Z"/></g></g></symbol>

<symbol id="icon-hairdryer" viewBox="0 0 18.76 17.48"><title>hairdryer</title><g id="Layer_2" data-name="Layer 2"><g id="Layer_1-2" data-name="Layer 1"><path class="cls-1" d="M18.43,1.37,4.9,0h0A4.85,4.85,0,0,0,3,9.36l1.81,6.57A2.22,2.22,0,0,0,7,17.48a2.64,2.64,0,0,0,.7-.1,2.3,2.3,0,0,0,1.74-2.74L8,9.4l10.38-1A.37.37,0,0,0,18.76,8V1.74A.37.37,0,0,0,18.43,1.37ZM8.77,14.84a1.56,1.56,0,0,1-1.22,1.82,1.56,1.56,0,0,1-2-.94L3.89,9.62a5,5,0,0,0,1,.1h0l2.39-.24ZM18,7.64,4.86,9a4.11,4.11,0,0,1,0-8.22L18,2.08Z"/><path class="cls-1" d="M2.67,4.86A2.54,2.54,0,1,0,5.22,2.32,2.55,2.55,0,0,0,2.67,4.86ZM5.22,3.07A1.79,1.79,0,1,1,3.42,4.86,1.8,1.8,0,0,1,5.22,3.07Z"/><path class="cls-1" d="M9.54,9.9a.37.37,0,1,0-.71.23l.51,1.56A.37.37,0,0,0,9.7,12l.12,0a.37.37,0,0,0,.24-.47Z"/></g></g></symbol>

<symbol id="icon-hanger" viewBox="0 0 18.75 13.76"><title>hanger</title><g id="Layer_2" data-name="Layer 2"><g id="Layer_1-2" data-name="Layer 1"><path class="cls-1" d="M18.37,13.76H.37a.38.38,0,0,1-.24-.67L9.37,5.64c1.78-1.44,2.24-2,2.06-3.19A2.06,2.06,0,0,0,10.7,1,1.59,1.59,0,0,0,9.48.77a2.3,2.3,0,0,0-1.54.84,1.65,1.65,0,0,0-.27,1.28l.06.37L7,3.38,6.93,3a2.4,2.4,0,0,1,.41-1.85A3.06,3.06,0,0,1,9.37,0a2.36,2.36,0,0,1,1.77.41,2.79,2.79,0,0,1,1,1.9c.24,1.61-.53,2.42-2.33,3.88L1.44,13H17.38l-6-5.29.5-.56,6.77,5.94a.38.38,0,0,1-.25.66Z"/></g></g></symbol>

<symbol id="icon-iron" viewBox="0 0 12.21 21.75"><title>iron</title><g id="Layer_2" data-name="Layer 2"><g id="Layer_1-2" data-name="Layer 1"><path class="cls-1" d="M2.24,17.37a.37.37,0,0,0-.29,0,.26.26,0,0,0-.12.08.2.2,0,0,0-.08.12.33.33,0,0,0,0,.14.41.41,0,0,0,0,.15.29.29,0,0,0,.08.12.35.35,0,0,0,.12.08.31.31,0,0,0,.14,0,.39.39,0,0,0,.15,0L2.36,18a.38.38,0,0,0,.1-.27.4.4,0,0,0-.1-.26A.43.43,0,0,0,2.24,17.37Z"/><path class="cls-1" d="M1.89,11.77h0a.38.38,0,1,0-.37-.41A.38.38,0,0,0,1.89,11.77Z"/><path class="cls-1" d="M2.71,7.95a.38.38,0,0,0-.48.23.37.37,0,0,0,.23.48l.12,0a.38.38,0,0,0,.13-.73Z"/><path class="cls-1" d="M1.89,14.93a.36.36,0,0,0,.36-.38h0a.38.38,0,0,0-.38-.36.37.37,0,0,0-.36.39h0a.38.38,0,0,0,.38.36Z"/><path class="cls-1" d="M4,5.85a.38.38,0,0,0,.31-.16.37.37,0,0,0-.62-.42.38.38,0,0,0,.1.52A.42.42,0,0,0,4,5.85Z"/><path class="cls-1" d="M5.84,3.38A.35.35,0,0,0,6,3.47a.4.4,0,0,0,.15,0,.37.37,0,0,0,.14,0,.48.48,0,0,0,.12-.09.25.25,0,0,0,.08-.12.34.34,0,0,0,0-.28.25.25,0,0,0-.08-.12A.37.37,0,0,0,6,2.77a.35.35,0,0,0-.12.09A.26.26,0,0,0,5.76,3a.34.34,0,0,0,0,.28A.26.26,0,0,0,5.84,3.38Z"/><path class="cls-1" d="M10,8.17a.38.38,0,0,0-.48-.23.36.36,0,0,0-.23.47.37.37,0,0,0,.35.26l.12,0A.39.39,0,0,0,10,8.17Z"/><path class="cls-1" d="M9.92,11.42a.36.36,0,0,0,.37.33h0a.37.37,0,1,0-.07-.74.36.36,0,0,0-.33.4Z"/><path class="cls-1" d="M8.21,5.84a.39.39,0,0,0,.21-.06.37.37,0,0,0,.1-.52A.36.36,0,0,0,8,5.16a.37.37,0,0,0-.1.52A.38.38,0,0,0,8.21,5.84Z"/><path class="cls-1" d="M10.34,14.17a.36.36,0,0,0-.38.36.37.37,0,0,0,.36.39h0a.38.38,0,1,0,0-.75Z"/><path class="cls-1" d="M10.38,17.45a.25.25,0,0,0-.12-.08.37.37,0,0,0-.29,0,.43.43,0,0,0-.12.08.38.38,0,0,0-.11.26.39.39,0,0,0,0,.15.78.78,0,0,0,.08.12l.12.08a.39.39,0,0,0,.15,0,.36.36,0,0,0,.26-.11.41.41,0,0,0,.08-.12.39.39,0,0,0,0-.15.31.31,0,0,0,0-.14A.25.25,0,0,0,10.38,17.45Z"/><path class="cls-1" d="M6.31.06a.37.37,0,0,0-.4,0C5.66.21,0,3.92,0,12.33c0,8.11,1.24,9.23,1.49,9.37a.37.37,0,0,0,.19,0h8.86a.37.37,0,0,0,.19,0c.25-.14,1.49-1.26,1.49-9.37C12.21,3.92,6.55.21,6.31.06ZM10.39,21H1.83c-.24-.33-1.08-2-1.08-8.67A14.25,14.25,0,0,1,6.11.83a14.25,14.25,0,0,1,5.36,11.5C11.46,19.15,10.59,20.73,10.39,21Z"/><rect class="cls-1" x="3.05" y="19.36" width="5.77" height="0.75"/></g></g></symbol>

<symbol id="icon-microwave" viewBox="0 0 20.75 13.7"><title>microwave</title><g id="Layer_2" data-name="Layer 2"><g id="Layer_1-2" data-name="Layer 1"><path class="cls-1" d="M18.35,0H2.4A2.4,2.4,0,0,0,0,2.4v8.9a2.4,2.4,0,0,0,2.4,2.4H18.35a2.4,2.4,0,0,0,2.4-2.4V2.4A2.4,2.4,0,0,0,18.35,0ZM20,11.3A1.65,1.65,0,0,1,18.35,13H2.4A1.65,1.65,0,0,1,.75,11.3V2.4A1.65,1.65,0,0,1,2.4.75H18.35A1.65,1.65,0,0,1,20,2.4Z"/><path class="cls-1" d="M12.47,2.24H5.67A3.14,3.14,0,0,0,2.53,5.38V8.32a3.14,3.14,0,0,0,3.14,3.14h6.8a3.14,3.14,0,0,0,3.14-3.14V5.38A3.14,3.14,0,0,0,12.47,2.24Zm2.39,6.08a2.39,2.39,0,0,1-2.39,2.39H5.67A2.39,2.39,0,0,1,3.28,8.32V5.38A2.39,2.39,0,0,1,5.67,3h6.8a2.39,2.39,0,0,1,2.39,2.39Z"/><rect class="cls-1" x="17.08" y="3.73" width="1.49" height="0.75"/><rect class="cls-1" x="17.08" y="5.25" width="1.49" height="0.75"/><rect class="cls-1" x="17.08" y="6.77" width="1.49" height="0.75"/></g></g></symbol>

<symbol id="icon-newspaper" viewBox="0 0 20.75 17.72"><title>newspaper</title><g id="Layer_2" data-name="Layer 2"><g id="Layer_1-2" data-name="Layer 1"><path class="cls-1" d="M20.38,0H5.13a.38.38,0,0,0-.37.38V15a2,2,0,0,1-4,0V8.86H0V15a2.75,2.75,0,0,0,2.75,2.75H18A2.73,2.73,0,0,0,20.75,15V.38A.38.38,0,0,0,20.38,0ZM20,15a2,2,0,0,1-2,2H4.63a2.73,2.73,0,0,0,.86-1.8h0V.75H20Z"/><rect class="cls-1" x="2.38" y="8.86" width="0.75" height="5.46"/><rect class="cls-1" x="7.48" y="14.61" width="10.46" height="0.75"/><rect class="cls-1" x="7.48" y="2.37" width="10.46" height="0.75"/><rect class="cls-1" x="7.48" y="4.82" width="4" height="0.75"/><rect class="cls-1" x="7.48" y="7.26" width="4" height="0.75"/><rect class="cls-1" x="7.48" y="9.71" width="4" height="0.75"/><rect class="cls-1" x="7.48" y="12.16" width="4" height="0.75"/><path class="cls-1" d="M12.89,4.82a.38.38,0,0,0-.37.38v7.34a.38.38,0,0,0,.38.38h5a.38.38,0,0,0,.38-.37V5.19a.38.38,0,0,0-.37-.37Zm4.67,7.34h-4.3V5.57h4.3Z"/></g></g></symbol>

<symbol id="icon-none" viewBox="0 0 21 21"><title>none</title><circle cx="10.5" cy="10.5" r="10" fill="none" stroke="currentColor"/></symbol>

<symbol id="icon-parking" viewBox="0 0 20.75 20.75"><title>parking</title><g id="Layer_2" data-name="Layer 2"><g id="Layer_1-2" data-name="Layer 1"><path class="cls-1" d="M10.38,0A10.38,10.38,0,1,0,20.75,10.38,10.39,10.39,0,0,0,10.38,0Zm0,20A9.63,9.63,0,1,1,20,10.38,9.64,9.64,0,0,1,10.38,20Z"/><path class="cls-1" d="M10.43,6a17.8,17.8,0,0,0-2.19.14v8.57H9.71V11.91c.28,0,.58,0,.86,0,2.21,0,3.45-1.25,3.45-3S12.8,6,10.43,6Zm.11,4.64c-.26,0-.53,0-.83,0V7.45a6.43,6.43,0,0,1,1-.07A1.62,1.62,0,0,1,12.49,9C12.49,10,11.87,10.66,10.54,10.66Z"/></g></g></symbol>

<symbol id="icon-phone" viewBox="0 0 18.75 13.83"><title>phone</title><g id="Layer_2" data-name="Layer 2"><g id="Layer_1-2" data-name="Layer 1"><path class="cls-1" d="M9.38,0C4.12,0,0,2.16,0,4.92A2.84,2.84,0,0,0,.33,6.22a.38.38,0,0,0,.33.2H4.85a.38.38,0,0,0,.38-.37V4.23a19.61,19.61,0,0,1,4.15-.43,19.61,19.61,0,0,1,4.15.43V6.05a.38.38,0,0,0,.38.38h4.18a.38.38,0,0,0,.33-.2,2.86,2.86,0,0,0,.33-1.31C18.75,2.16,14.63,0,9.38,0Zm8.47,5.68H14.28V3.93A.37.37,0,0,0,14,3.57,19,19,0,0,0,9.38,3a19,19,0,0,0-4.63.53.37.37,0,0,0-.28.36V5.68H.91a2,2,0,0,1-.16-.76C.75,2.66,4.7.75,9.38.75S18,2.66,18,4.92A2,2,0,0,1,17.84,5.68Z"/><path class="cls-1" d="M12.36,8.44a3,3,0,1,0-3,3A3,3,0,0,0,12.36,8.44Zm-5.21,0a2.23,2.23,0,1,1,2.23,2.23A2.23,2.23,0,0,1,7.14,8.44Z"/><path class="cls-1" d="M15.14,8.4l-.66.36,2.33,4.32H1.94L4.27,8.76,3.61,8.4,1,13.28a.38.38,0,0,0,.33.55H17.44a.38.38,0,0,0,.33-.55Z"/></g></g></symbol>

<symbol id="icon-pillow" viewBox="0 0 21.75 13.69"><title>pillow</title><g id="Layer_2" data-name="Layer 2"><g id="Layer_1-2" data-name="Layer 1"><path class="cls-1" d="M21,3.37l.74-2.9A.37.37,0,0,0,21.28,0l-2.9.74h-15L.47,0a.38.38,0,0,0-.36.1A.38.38,0,0,0,0,.47l.74,2.9v7L0,13.22a.38.38,0,0,0,.1.36.38.38,0,0,0,.36.1l2.9-.74h15l2.9.74h.09a.37.37,0,0,0,.36-.47L21,10.32Zm-.74,7.1.6,2.33-2.33-.6H3.23l-2.33.6.6-2.33a.37.37,0,0,0,0-.09V3.32a.37.37,0,0,0,0-.09L.9.9l2.33.6h15.3L20.85.9l-.6,2.33a.37.37,0,0,0,0,.09v7.05A.37.37,0,0,0,20.26,10.46Z"/><rect class="cls-1" x="3.21" y="5.2" width="0.5" height="3.29"/><rect class="cls-1" x="18.04" y="5.2" width="0.5" height="3.29"/><path class="cls-1" d="M17.64,9.65l-.07.75c.52.05,1.2.85,1.51,1.35l.64-.4C19.6,11.19,18.68,9.76,17.64,9.65Z"/><path class="cls-1" d="M17.64,3.08l.72.22c.23-.76,1.43-.81,1.44-.81l0-.75C19.71,1.74,18,1.81,17.64,3.08Z"/><path class="cls-1" d="M3.71,3.77l.7-.27a4,4,0,0,0-2.19-2L2,2.2A3.28,3.28,0,0,1,3.71,3.77Z"/><path class="cls-1" d="M1.8,11.31l.58.47a4,4,0,0,1,2-1.38l-.09-.74A4.75,4.75,0,0,0,1.8,11.31Z"/></g></g></symbol>

<symbol id="icon-rockingchair" viewBox="0 0 15.48 20.61"><title>rockingchair</title><g id="Layer_2" data-name="Layer 2"><g id="Layer_1-2" data-name="Layer 1"><path class="cls-1" d="M15.46,19.09a.37.37,0,0,0-.47-.25,24.26,24.26,0,0,1-2.87.64l-1-5.19a16.15,16.15,0,0,0,2.82-1l-.33-.68a15.26,15.26,0,0,1-3.42,1.17V9c1.53-.2,2.71-.18,3.11.23.05.05.19.2,0,.63l.7.26a1.26,1.26,0,0,0-.19-1.41c-1.53-1.59-8.95.6-11.54,1.42C1.91,5,1.26.26.34,0L.08.69c.61.56,1.4,7.2,1.82,13.3a.38.38,0,0,0,.26.33,14.36,14.36,0,0,0,2.27.44l-.92,4.74a24.63,24.63,0,0,1-3-.66.37.37,0,0,0-.22.71,27.5,27.5,0,0,0,7.48,1,27.51,27.51,0,0,0,7.48-1A.37.37,0,0,0,15.46,19.09Zm-6-5.2a17.36,17.36,0,0,1-3.34.23l-.43-4.2C7,9.59,8.32,9.29,9.49,9.1Zm-7.07-3c.79-.25,1.66-.51,2.57-.76l.41,4a16.17,16.17,0,0,1-2.77-.42C2.56,12.76,2.49,11.82,2.42,10.88Zm1.84,8.74.93-4.78c.45,0,.92.06,1.44.06a17.6,17.6,0,0,0,3.82-.42l.94,5.12a26.44,26.44,0,0,1-3.64.26A26.36,26.36,0,0,1,4.25,19.62Z"/></g></g></symbol>

<symbol id="icon-safe" viewBox="0 0 19.75 19.75"><title>safe</title><g id="Layer_2" data-name="Layer 2"><g id="Layer_1-2" data-name="Layer 1"><path class="cls-1" d="M19.38,0H.38A.38.38,0,0,0,0,.38v19a.38.38,0,0,0,.38.38h19a.38.38,0,0,0,.38-.37V.38A.38.38,0,0,0,19.38,0ZM19,19H.75V.75H19Z"/><path class="cls-1" d="M2.68,17.44H17.07a.38.38,0,0,0,.38-.37V2.68a.38.38,0,0,0-.37-.37H2.68a.38.38,0,0,0-.37.38V17.07A.38.38,0,0,0,2.68,17.44Zm14-14.38V16.69H3.06V15.24H4V13.16H3.06V6.59H4V4.51H3.06V3.06Z"/><path class="cls-1" d="M9.88,14A4.15,4.15,0,1,0,5.72,9.88,4.16,4.16,0,0,0,9.88,14Zm0-7.56a3.4,3.4,0,1,1-3.4,3.4A3.41,3.41,0,0,1,9.88,6.47Z"/><path class="cls-1" d="M9.88,12.2A2.32,2.32,0,1,0,7.55,9.88,2.33,2.33,0,0,0,9.88,12.2Zm0-3.89A1.57,1.57,0,1,1,8.3,9.88,1.57,1.57,0,0,1,9.88,8.3Z"/></g></g></symbol>

<symbol id="icon-shower" viewBox="0 0 14.65 19.46"><title>shower</title><g id="Layer_2" data-name="Layer 2"><g id="Layer_1-2" data-name="Layer 1"><path class="cls-1" d="M8.71,10.64a.37.37,0,0,1-.26-.11.33.33,0,0,1-.11-.26A.39.39,0,0,1,8.45,10,.38.38,0,0,1,9,10a.38.38,0,0,1,.11.27.37.37,0,0,1-.37.37Z"/><path class="cls-1" d="M8.33,16.88a.38.38,0,0,1,.38-.38h0a.38.38,0,0,1,.38.38h0a.37.37,0,0,1-.38.37h0A.37.37,0,0,1,8.33,16.88Zm0-2.2a.38.38,0,0,1,.38-.38h0a.38.38,0,0,1,.38.38h0a.38.38,0,0,1-.38.37h0A.38.38,0,0,1,8.33,14.68Zm0-2.21a.37.37,0,0,1,.38-.37h0a.37.37,0,0,1,.38.37h0a.38.38,0,0,1-.38.38h0A.38.38,0,0,1,8.33,12.47Z"/><path class="cls-1" d="M8.71,19.46a.38.38,0,0,1-.37-.38.36.36,0,0,1,.11-.26.37.37,0,0,1,.52,0,.36.36,0,0,1,.11.26.38.38,0,0,1-.37.38Z"/><path class="cls-1" d="M10.42,10.64a.37.37,0,0,1-.26-.11.33.33,0,0,1-.11-.26.39.39,0,0,1,0-.15l.08-.12a.39.39,0,0,1,.53,0,.4.4,0,0,1,.12.27.34.34,0,0,1-.12.26.26.26,0,0,1-.12.08A.33.33,0,0,1,10.42,10.64Z"/><path class="cls-1" d="M10,16.88a.37.37,0,0,1,.38-.37h0a.37.37,0,0,1,.38.37h0a.38.38,0,0,1-.38.38h0A.38.38,0,0,1,10,16.88Zm0-2.2a.38.38,0,0,1,.38-.38h0a.38.38,0,0,1,.38.38h0a.38.38,0,0,1-.38.37h0A.38.38,0,0,1,10,14.68Zm0-2.21a.37.37,0,0,1,.38-.37h0a.37.37,0,0,1,.38.37h0a.38.38,0,0,1-.38.38h0A.38.38,0,0,1,10,12.47Z"/><path class="cls-1" d="M10.42,19.46a.31.31,0,0,1-.14,0,.35.35,0,0,1-.12-.08.33.33,0,0,1-.11-.27.37.37,0,0,1,.63-.26.37.37,0,0,1,.12.26.34.34,0,0,1-.12.27A.35.35,0,0,1,10.42,19.46Z"/><path class="cls-1" d="M12.13,10.64a.41.41,0,0,1-.27-.11.37.37,0,0,1-.08-.12.33.33,0,0,1,0-.14.37.37,0,0,1,.64-.27.46.46,0,0,1,.09.12.79.79,0,0,1,0,.15.33.33,0,0,1-.11.26A.37.37,0,0,1,12.13,10.64Z"/><path class="cls-1" d="M11.75,16.88a.37.37,0,0,1,.38-.37h0a.37.37,0,0,1,.38.37h0a.38.38,0,0,1-.38.38h0A.38.38,0,0,1,11.75,16.88Zm0-2.2a.38.38,0,0,1,.38-.38h0a.38.38,0,0,1,.38.38h0a.38.38,0,0,1-.38.37h0A.38.38,0,0,1,11.75,14.68Zm0-2.21a.37.37,0,0,1,.38-.37h0a.37.37,0,0,1,.38.37h0a.38.38,0,0,1-.38.38h0A.38.38,0,0,1,11.75,12.47Z"/><path class="cls-1" d="M12.13,19.46a.4.4,0,0,1-.27-.11.39.39,0,0,1-.11-.27.36.36,0,0,1,.11-.26.39.39,0,0,1,.53,0,.36.36,0,0,1,.11.26.35.35,0,0,1-.11.27A.36.36,0,0,1,12.13,19.46Z"/><path class="cls-1" d="M13.84,10.64a.41.41,0,0,1-.27-.11.38.38,0,0,1-.08-.12.35.35,0,0,1,0-.14.38.38,0,0,1,.1-.27A.39.39,0,0,1,14,9.92a.37.37,0,0,1,.12.08.39.39,0,0,1,.11.27.69.69,0,0,1,0,.14.27.27,0,0,1-.09.12A.35.35,0,0,1,13.84,10.64Z"/><path class="cls-1" d="M13.47,16.88a.36.36,0,0,1,.37-.37h0a.37.37,0,0,1,.38.37h0a.38.38,0,0,1-.38.38h0A.37.37,0,0,1,13.47,16.88Zm0-2.2a.37.37,0,0,1,.37-.38h0a.38.38,0,0,1,.38.38h0a.38.38,0,0,1-.38.37h0A.37.37,0,0,1,13.47,14.68Zm0-2.21a.36.36,0,0,1,.37-.37h0a.37.37,0,0,1,.38.37h0a.38.38,0,0,1-.38.38h0A.37.37,0,0,1,13.47,12.47Z"/><path class="cls-1" d="M13.84,19.46a.4.4,0,0,1-.27-.11.38.38,0,0,1-.1-.27.32.32,0,0,1,0-.14.36.36,0,0,1,.08-.12.37.37,0,0,1,.41-.08.25.25,0,0,1,.12.08.36.36,0,0,1,.11.26.38.38,0,0,1-.11.27.35.35,0,0,1-.12.08A.31.31,0,0,1,13.84,19.46Z"/><path class="cls-1" d="M11.65,4.31V.38A.38.38,0,0,0,11.28,0H5.76A5.77,5.77,0,0,0,0,5.76V19.38H.75V5.76a5,5,0,0,1,5-5H10.9V4.31a3,3,0,0,0-3,2.84.38.38,0,0,0,.38.38h6a.38.38,0,0,0,.38-.37A3,3,0,0,0,11.65,4.31Zm-3,2.46C8.83,6.16,9.34,5,11.28,5s2.45,1.12,2.58,1.73Z"/></g></g></symbol>

<symbol id="icon-skincare" viewBox="0 0 14.52 21.75"><title>skincare</title><g id="Layer_2" data-name="Layer 2"><g id="Layer_1-2" data-name="Layer 1"><path class="cls-1" d="M11.66,7.23H10.36V4.78A.38.38,0,0,0,10,4.41H9V2.5h1.63c1.39,0,1.39.6,1.39.8a.38.38,0,0,0,.38.38h1.19A.37.37,0,0,0,14,3.35,3.26,3.26,0,0,0,13.28,1a3.31,3.31,0,0,0-2.61-1H3.13a.38.38,0,0,0-.37.38V2.12a.38.38,0,0,0,.38.38H5.45V4.41H4.53a.38.38,0,0,0-.37.38V7.23H2.86A2.86,2.86,0,0,0,0,10.09V21.37a.38.38,0,0,0,.38.38H14.14a.38.38,0,0,0,.38-.37V10.09A2.86,2.86,0,0,0,11.66,7.23ZM3.51,1.75v-1h7.17a2.61,2.61,0,0,1,2,.73,2.36,2.36,0,0,1,.54,1.45h-.49c-.13-.51-.58-1.18-2.09-1.18h-2a.38.38,0,0,0-.37.38V4.41H6.2V2.5h1V1.75ZM4.9,5.16H9.61V7.23H4.9ZM13.77,19.1h-5v-6h5Zm0-6.76H8.38a.38.38,0,0,0-.37.38v6.76a.38.38,0,0,0,.38.38h5.38V21H.75V10.09A2.11,2.11,0,0,1,2.86,8h8.79a2.11,2.11,0,0,1,2.11,2.11Z"/></g></g></symbol>

<symbol id="icon-smarttv" viewBox="0 0 21.75 15.71"><title>smarttv</title><g id="Layer_2" data-name="Layer 2"><g id="Layer_1-2" data-name="Layer 1"><path class="cls-1" d="M16.52,6.41v.38h.75V6.41a1.93,1.93,0,0,0-1.93-1.93H15v.75h.38A1.18,1.18,0,0,1,16.52,6.41Z"/><path class="cls-1" d="M18.64,6.41v.38h.75V6.41a4.06,4.06,0,0,0-4.06-4.06H15v.75h.38A3.31,3.31,0,0,1,18.64,6.41Z"/><path class="cls-1" d="M15.34,0H15V.75h.38A5.67,5.67,0,0,1,21,6.41v.38h.75V6.41A6.42,6.42,0,0,0,15.34,0Z"/><path class="cls-1" d="M21,12.48H.75V.75H14.08V0H.38A.38.38,0,0,0,0,.38V12.86a.38.38,0,0,0,.38.38H8.74V15H6.41v.75h8.93V15H12.9V13.23h8.48a.38.38,0,0,0,.38-.37v-5H21ZM12.15,15H9.49V13.23h2.66Z"/></g></g></symbol>

<symbol id="icon-wifi" viewBox="0 0 20.75 20.75"><title>wifi</title><g id="Layer_2" data-name="Layer 2"><g id="Layer_1-2" data-name="Layer 1"><path class="cls-1" d="M10.38,20.75A10.38,10.38,0,1,1,20.75,10.38,10.39,10.39,0,0,1,10.38,20.75Zm0-20A9.63,9.63,0,1,0,20,10.38,9.64,9.64,0,0,0,10.38.75Z"/><path class="cls-1" d="M8.5,15.58H7.75v-.37a1.34,1.34,0,0,0-1.33-1.33H6v-.75h.38A2.09,2.09,0,0,1,8.5,15.21Z"/><path class="cls-1" d="M10.83,15.58h-.75v-.37a3.67,3.67,0,0,0-3.67-3.67H6v-.75h.38a4.42,4.42,0,0,1,4.42,4.42Z"/><path class="cls-1" d="M13.42,15.58h-.75v-.37A6.27,6.27,0,0,0,6.41,8.95H6V8.2h.38a7,7,0,0,1,7,7Z"/><path class="cls-1" d="M16.45,15.58H15.7v-.37A9.3,9.3,0,0,0,6.41,5.92H6V5.17h.38a10.05,10.05,0,0,1,10,10Z"/></g></g></symbol>

<symbol id="icon-workdesk" viewBox="0 0 21.75 17.56"><title>workdesk</title><g id="Layer_2" data-name="Layer 2"><g id="Layer_1-2" data-name="Layer 1"><path class="cls-1" d="M17.13,6.18A3.09,3.09,0,1,0,14,3.09,3.09,3.09,0,0,0,17.13,6.18Zm0-5.43a2.34,2.34,0,1,1-2.34,2.34A2.34,2.34,0,0,1,17.13.75Z"/><path class="cls-1" d="M17.81,3.39v-2h-.75V3h-.88v.75h1.25A.38.38,0,0,0,17.81,3.39Z"/><rect class="cls-1" x="1.67" y="6.2" width="4.25" height="0.75"/><rect class="cls-1" x="1.67" y="4.43" width="4.25" height="0.75"/><path class="cls-1" d="M21.38,8.19H.38A.38.38,0,0,0,0,8.56v9H.75V11.88H12.7v5.3a.38.38,0,0,0,.38.38h8.3a.38.38,0,0,0,.38-.37V8.56A.38.38,0,0,0,21.38,8.19ZM.75,11.13V8.94H12.7v2.2ZM21,16.81H13.45V11.88H21Zm-7.55-5.68V8.94H21v2.2Z"/><rect class="cls-1" x="14.36" y="13.34" width="0.75" height="2.14"/><rect class="cls-1" x="15.95" y="9.63" width="2.36" height="0.75"/></g></g></symbol>

<symbol id="icon-electriccarcharging" viewBox="0 0 21 21"><title>electriccarcharging</title><g><path d="M17.3,0.9h-8c-1.1,0-2,0.9-2,2v6.6c-1,0.3-2.2,1.1-2.2,2.7v4.6c0,0.8-1.6,1.1-2.3,0.6 c-0.2-0.2-0.3-0.4-0.3-0.6V7.8l2.3-4.1L4.2,3.3L1.8,7.5c0,0.1,0,0.1,0,0.2v9c0,0.5,0.2,1,0.6,1.3c0.3,0.2,0.8,0.4,1.3,0.4 c1,0,2.2-0.6,2.2-1.6v-4.6c0-1.2,0.8-1.7,1.4-1.9v9.9h11.9V2.8C19.2,1.8,18.3,0.9,17.3,0.9z M18.5,19.4H8V2.8 c0-0.7,0.5-1.2,1.2-1.2h8c0.7,0,1.2,0.5,1.2,1.2V19.4z"/> <polygon points="14.5,5.7 10.2,11.4 13,12 12.1,16 16.3,10.2 13.6,9.6"/></g></symbol>

</svg>