<svg xmlns="http://www.w3.org/2000/svg" class="icon" viewBox="0 0 12.21 21.75"><title>iron</title><g id="Layer_2" data-name="Layer 2"><g id="Layer_1-2" data-name="Layer 1"><path class="cls-1" d="M2.24,17.37a.37.37,0,0,0-.29,0,.26.26,0,0,0-.12.08.2.2,0,0,0-.08.12.33.33,0,0,0,0,.14.41.41,0,0,0,0,.15.29.29,0,0,0,.08.12.35.35,0,0,0,.12.08.31.31,0,0,0,.14,0,.39.39,0,0,0,.15,0L2.36,18a.38.38,0,0,0,.1-.27.4.4,0,0,0-.1-.26A.43.43,0,0,0,2.24,17.37Z"/><path class="cls-1" d="M1.89,11.77h0a.38.38,0,1,0-.37-.41A.38.38,0,0,0,1.89,11.77Z"/><path class="cls-1" d="M2.71,7.95a.38.38,0,0,0-.48.23.37.37,0,0,0,.23.48l.12,0a.38.38,0,0,0,.13-.73Z"/><path class="cls-1" d="M1.89,14.93a.36.36,0,0,0,.36-.38h0a.38.38,0,0,0-.38-.36.37.37,0,0,0-.36.39h0a.38.38,0,0,0,.38.36Z"/><path class="cls-1" d="M4,5.85a.38.38,0,0,0,.31-.16.37.37,0,0,0-.62-.42.38.38,0,0,0,.1.52A.42.42,0,0,0,4,5.85Z"/><path class="cls-1" d="M5.84,3.38A.35.35,0,0,0,6,3.47a.4.4,0,0,0,.15,0,.37.37,0,0,0,.14,0,.48.48,0,0,0,.12-.09.25.25,0,0,0,.08-.12.34.34,0,0,0,0-.28.25.25,0,0,0-.08-.12A.37.37,0,0,0,6,2.77a.35.35,0,0,0-.12.09A.26.26,0,0,0,5.76,3a.34.34,0,0,0,0,.28A.26.26,0,0,0,5.84,3.38Z"/><path class="cls-1" d="M10,8.17a.38.38,0,0,0-.48-.23.36.36,0,0,0-.23.47.37.37,0,0,0,.35.26l.12,0A.39.39,0,0,0,10,8.17Z"/><path class="cls-1" d="M9.92,11.42a.36.36,0,0,0,.37.33h0a.37.37,0,1,0-.07-.74.36.36,0,0,0-.33.4Z"/><path class="cls-1" d="M8.21,5.84a.39.39,0,0,0,.21-.06.37.37,0,0,0,.1-.52A.36.36,0,0,0,8,5.16a.37.37,0,0,0-.1.52A.38.38,0,0,0,8.21,5.84Z"/><path class="cls-1" d="M10.34,14.17a.36.36,0,0,0-.38.36.37.37,0,0,0,.36.39h0a.38.38,0,1,0,0-.75Z"/><path class="cls-1" d="M10.38,17.45a.25.25,0,0,0-.12-.08.37.37,0,0,0-.29,0,.43.43,0,0,0-.12.08.38.38,0,0,0-.11.26.39.39,0,0,0,0,.15.78.78,0,0,0,.08.12l.12.08a.39.39,0,0,0,.15,0,.36.36,0,0,0,.26-.11.41.41,0,0,0,.08-.12.39.39,0,0,0,0-.15.31.31,0,0,0,0-.14A.25.25,0,0,0,10.38,17.45Z"/><path class="cls-1" d="M6.31.06a.37.37,0,0,0-.4,0C5.66.21,0,3.92,0,12.33c0,8.11,1.24,9.23,1.49,9.37a.37.37,0,0,0,.19,0h8.86a.37.37,0,0,0,.19,0c.25-.14,1.49-1.26,1.49-9.37C12.21,3.92,6.55.21,6.31.06ZM10.39,21H1.83c-.24-.33-1.08-2-1.08-8.67A14.25,14.25,0,0,1,6.11.83a14.25,14.25,0,0,1,5.36,11.5C11.46,19.15,10.59,20.73,10.39,21Z"/><rect class="cls-1" x="3.05" y="19.36" width="5.77" height="0.75"/></g></g></svg>