<svg xmlns="http://www.w3.org/2000/svg" viewBox="0 0 114.11 11.84" class="icon icon--logotype"><g><path d="M0,11.62V.22H2.65v9H7.22v2.41Z"/><path d="M11,11.62V.22h7.22V2.65H13.67v2h4.17V7H13.67V9.21h4.57v2.41Z"/><path d="M32.23,11.72a33.6,33.6,0,0,1-3.49-.19V.33A29.41,29.41,0,0,1,32.12.14c4.73,0,6.94,2.46,6.94,5.68S37,11.72,32.23,11.72Zm.25-9.21a8,8,0,0,0-1.09.06V9.29a10.33,10.33,0,0,0,1.26.06c2.49,0,3.59-1.4,3.59-3.53S34.94,2.51,32.48,2.51Z"/><path d="M49.83,11.62,49,9.55H45l-.86,2.07H41.49L46.86.12h.36l5.37,11.5ZM47,4.79,45.88,7.53h2.26Z"/><path d="M60.19,11.81c-3.07,0-4.78-1.65-4.78-4.82V.22h2.65V6.8c0,1.62.68,2.6,2.19,2.6s2.18-1,2.18-2.6V.22h2.65V7C65.08,10.16,63.26,11.81,60.19,11.81Z"/><path d="M73.51,8.25c-.37,0-.62,0-1,0v3.41H69.89V.33A30.19,30.19,0,0,1,73.06.14c3.3,0,5.07,1.76,5.07,4.06S76.53,8.25,73.51,8.25Zm0-5.63a7.52,7.52,0,0,0-1,.06V5.93l.79,0c1.4,0,2.1-.61,2.1-1.71C75.42,3.33,74.82,2.61,73.51,2.61Z"/><path d="M89.15,11.62V7H84.77v4.57H82.12V.22h2.65V4.68h4.39V.22H91.8v11.4Z"/><path d="M96.75,11.62V.22h2.65v11.4Z"/><path d="M113.84,11.84,107,5.66v6h-2.65V.06l.36-.06,6.78,6.13V.22h2.65V11.79Z"/></g></svg>