<svg xmlns="http://www.w3.org/2000/svg" viewBox="0 0 29.89 36.65" class="icon icon--logo"><g><path class="cls-1" d="M22.92,9.07V.49a.49.49,0,0,0-.78-.4A9.43,9.43,0,0,0,18.5,4.61l-3-4.4a.49.49,0,0,0-.81,0l-3,4.36C10.86,2.19,8.14.19,8,.09a.49.49,0,0,0-.78.4V8.91a14.95,14.95,0,1,0,15.7.16ZM25.84,21.4a.5.5,0,0,1,.55.06,1.28,1.28,0,0,1,.34,1.38,1,1,0,0,1-.92.58,1.59,1.59,0,0,0,.16-.3A2,2,0,0,0,25.84,21.4Zm-.88.06a1.28,1.28,0,0,1,.34,1.38,1.09,1.09,0,0,1-1.08.59,1.52,1.52,0,0,0,.12-.24,2,2,0,0,0-.15-1.66l0,0A.56.56,0,0,1,25,21.46Zm-1.18-.54,0,0-.12-.1h0l-.19-.19c-2.15-2.13-2.78-7.82-2.89-9h1l.06.25c0,.17.08.47.12.86.24,1.91.72,5.76,2.86,7.83A1.49,1.49,0,0,0,23.78,20.92Zm-16.1,6c.56-.41.92-.63.93-.64l.16-.09h.1l.35,0s1.22.11,2.94.11c.54,0,1.14,0,1.77,0A19.42,19.42,0,0,0,22,24.47L23.29,26A17.07,17.07,0,0,1,7.68,26.88Zm16-.39h0l.5.59a20.32,20.32,0,0,1-9.94,2.68A17.85,17.85,0,0,1,6.33,28c.28-.25.55-.47.8-.67A15.28,15.28,0,0,0,12,28.82a17.29,17.29,0,0,0,2.49.18A18.49,18.49,0,0,0,23.71,26.49ZM15,25.44a17.46,17.46,0,0,0,5.15-2.15,3,3,0,0,0,1,.76A18.93,18.93,0,0,1,15,25.44Zm6.86-2c-2.7-.32-4-8.33-4.31-11.81h.7c0,.44.61,7.06,3,9.75a1,1,0,0,0,0,1.07,1.23,1.23,0,0,0,1.57.37l.31-.2-.4-.62-.31.2a.52.52,0,0,1-.56-.17c-.16-.22.21-.53.37-.65a.7.7,0,0,1,.9,0l0,0h0a1.39,1.39,0,0,1,.49,1.48C23.46,23.39,22.82,23.6,21.86,23.48ZM19,11.68h.8c.08,1,.62,6.2,2.58,8.88a1.57,1.57,0,0,0-.58.27l-.06,0C19.66,18.44,19.06,12.41,19,11.68ZM8.21,1.53c1,.91,2.69,2.64,2.69,4.3a.49.49,0,0,0,.9.28l3.27-4.76,3.27,4.76a.49.49,0,0,0,.9-.28s.06-2.09,2.69-4.33v9.18H8.21Zm.05,14.58.56-4.44h8a48.87,48.87,0,0,0,.93,5.85,15.7,15.7,0,0,0,2,5.17A19.66,19.66,0,0,1,9.8,25.35l-1,.06c-.42-.3-.7-3.12-.61-6.2A.37.37,0,0,0,8,18.89l-1.52-1c.51-.44,1.26-1.17,1.63-1.54A.37.37,0,0,0,8.26,16.12Zm-7,5.59a13.71,13.71,0,0,1,6-11.33v.8a.49.49,0,0,0,.49.49h.36L7.54,15.9a23.88,23.88,0,0,1-1.81,1.67.37.37,0,0,0,0,.64l1.77,1.19c0,1.21,0,5,.66,6.29a19.66,19.66,0,0,0-4.38,3.91A13.63,13.63,0,0,1,1.23,21.7ZM14.95,35.42A13.69,13.69,0,0,1,4.19,30.2a18.67,18.67,0,0,1,1.56-1.69,16.72,16.72,0,0,0,5.55,1.8,19.2,19.2,0,0,0,2.91.22A21.23,21.23,0,0,0,24.7,27.66l1.53,1.82A13.71,13.71,0,0,1,14.95,35.42Zm7.82-11.19a2.61,2.61,0,0,0,.6-.13h0l.37,0,.43,0a2.62,2.62,0,0,0,.64-.07h0l.37,0,.43,0a1.79,1.79,0,0,0,1.82-1.05,2,2,0,0,0-.57-2.24,1.23,1.23,0,0,0-1.13-.22h0l-.29-.22c-2.28-1.74-2.79-5.79-3-7.74-.05-.42-.09-.73-.14-.93l0-.09h.19a.49.49,0,0,0,.49-.49v-.62a13.69,13.69,0,0,1,3.74,18.28Z"/><path d="M12.48,16c-.08-.15-.68.3-1.31.3s-1.07-.48-1.34-.3A1.47,1.47,0,0,0,12.48,16Z"/></g></svg>