<svg xmlns="http://www.w3.org/2000/svg" class="icon" viewBox="0 0 20.75 17.72"><title>newspaper</title><g id="Layer_2" data-name="Layer 2"><g id="Layer_1-2" data-name="Layer 1"><path class="cls-1" d="M20.38,0H5.13a.38.38,0,0,0-.37.38V15a2,2,0,0,1-4,0V8.86H0V15a2.75,2.75,0,0,0,2.75,2.75H18A2.73,2.73,0,0,0,20.75,15V.38A.38.38,0,0,0,20.38,0ZM20,15a2,2,0,0,1-2,2H4.63a2.73,2.73,0,0,0,.86-1.8h0V.75H20Z"/><rect class="cls-1" x="2.38" y="8.86" width="0.75" height="5.46"/><rect class="cls-1" x="7.48" y="14.61" width="10.46" height="0.75"/><rect class="cls-1" x="7.48" y="2.37" width="10.46" height="0.75"/><rect class="cls-1" x="7.48" y="4.82" width="4" height="0.75"/><rect class="cls-1" x="7.48" y="7.26" width="4" height="0.75"/><rect class="cls-1" x="7.48" y="9.71" width="4" height="0.75"/><rect class="cls-1" x="7.48" y="12.16" width="4" height="0.75"/><path class="cls-1" d="M12.89,4.82a.38.38,0,0,0-.37.38v7.34a.38.38,0,0,0,.38.38h5a.38.38,0,0,0,.38-.37V5.19a.38.38,0,0,0-.37-.37Zm4.67,7.34h-4.3V5.57h4.3Z"/></g></g></svg>