<svg xmlns="http://www.w3.org/2000/svg" class="icon" viewBox="0 0 20.75 20.75"><title>parking</title><g id="Layer_2" data-name="Layer 2"><g id="Layer_1-2" data-name="Layer 1"><path class="cls-1" d="M10.38,0A10.38,10.38,0,1,0,20.75,10.38,10.39,10.39,0,0,0,10.38,0Zm0,20A9.63,9.63,0,1,1,20,10.38,9.64,9.64,0,0,1,10.38,20Z"/><path class="cls-1" d="M10.43,6a17.8,17.8,0,0,0-2.19.14v8.57H9.71V11.91c.28,0,.58,0,.86,0,2.21,0,3.45-1.25,3.45-3S12.8,6,10.43,6Zm.11,4.64c-.26,0-.53,0-.83,0V7.45a6.43,6.43,0,0,1,1-.07A1.62,1.62,0,0,1,12.49,9C12.49,10,11.87,10.66,10.54,10.66Z"/></g></g></svg>