<svg xmlns="http://www.w3.org/2000/svg" class="icon" viewBox="0 0 18.75 13.83"><title>phone</title><g id="Layer_2" data-name="Layer 2"><g id="Layer_1-2" data-name="Layer 1"><path class="cls-1" d="M9.38,0C4.12,0,0,2.16,0,4.92A2.84,2.84,0,0,0,.33,6.22a.38.38,0,0,0,.33.2H4.85a.38.38,0,0,0,.38-.37V4.23a19.61,19.61,0,0,1,4.15-.43,19.61,19.61,0,0,1,4.15.43V6.05a.38.38,0,0,0,.38.38h4.18a.38.38,0,0,0,.33-.2,2.86,2.86,0,0,0,.33-1.31C18.75,2.16,14.63,0,9.38,0Zm8.47,5.68H14.28V3.93A.37.37,0,0,0,14,3.57,19,19,0,0,0,9.38,3a19,19,0,0,0-4.63.53.37.37,0,0,0-.28.36V5.68H.91a2,2,0,0,1-.16-.76C.75,2.66,4.7.75,9.38.75S18,2.66,18,4.92A2,2,0,0,1,17.84,5.68Z"/><path class="cls-1" d="M12.36,8.44a3,3,0,1,0-3,3A3,3,0,0,0,12.36,8.44Zm-5.21,0a2.23,2.23,0,1,1,2.23,2.23A2.23,2.23,0,0,1,7.14,8.44Z"/><path class="cls-1" d="M15.14,8.4l-.66.36,2.33,4.32H1.94L4.27,8.76,3.61,8.4,1,13.28a.38.38,0,0,0,.33.55H17.44a.38.38,0,0,0,.33-.55Z"/></g></g></svg>