<svg xmlns="http://www.w3.org/2000/svg" class="icon" viewBox="0 0 21.75 13.69"><title>pillow</title><g id="Layer_2" data-name="Layer 2"><g id="Layer_1-2" data-name="Layer 1"><path class="cls-1" d="M21,3.37l.74-2.9A.37.37,0,0,0,21.28,0l-2.9.74h-15L.47,0a.38.38,0,0,0-.36.1A.38.38,0,0,0,0,.47l.74,2.9v7L0,13.22a.38.38,0,0,0,.1.36.38.38,0,0,0,.36.1l2.9-.74h15l2.9.74h.09a.37.37,0,0,0,.36-.47L21,10.32Zm-.74,7.1.6,2.33-2.33-.6H3.23l-2.33.6.6-2.33a.37.37,0,0,0,0-.09V3.32a.37.37,0,0,0,0-.09L.9.9l2.33.6h15.3L20.85.9l-.6,2.33a.37.37,0,0,0,0,.09v7.05A.37.37,0,0,0,20.26,10.46Z"/><rect class="cls-1" x="3.21" y="5.2" width="0.5" height="3.29"/><rect class="cls-1" x="18.04" y="5.2" width="0.5" height="3.29"/><path class="cls-1" d="M17.64,9.65l-.07.75c.52.05,1.2.85,1.51,1.35l.64-.4C19.6,11.19,18.68,9.76,17.64,9.65Z"/><path class="cls-1" d="M17.64,3.08l.72.22c.23-.76,1.43-.81,1.44-.81l0-.75C19.71,1.74,18,1.81,17.64,3.08Z"/><path class="cls-1" d="M3.71,3.77l.7-.27a4,4,0,0,0-2.19-2L2,2.2A3.28,3.28,0,0,1,3.71,3.77Z"/><path class="cls-1" d="M1.8,11.31l.58.47a4,4,0,0,1,2-1.38l-.09-.74A4.75,4.75,0,0,0,1.8,11.31Z"/></g></g></svg>