<svg xmlns="http://www.w3.org/2000/svg" viewBox="0 0 16 16" class="icon"><path d="M8,0A8,8,0,0,0,4.79,15.33a7.08,7.08,0,0,1,.14-1.84L6,9.13A3.08,3.08,0,0,1,5.7,7.87c0-1.19.69-2.07,1.54-2.07A1.07,1.07,0,0,1,8.32,7a17.23,17.23,0,0,1-.71,2.84,1.24,1.24,0,0,0,1.26,1.54c1.52,0,2.54-1.95,2.54-4.25A3,3,0,0,0,8.09,4.06,3.79,3.79,0,0,0,4.15,7.89a2.31,2.31,0,0,0,.53,1.57.39.39,0,0,1,.11.45l-.16.64a.28.28,0,0,1-.4.2A3.08,3.08,0,0,1,2.59,7.69c0-2.27,1.92-5,5.72-5a4.78,4.78,0,0,1,5.07,4.58c0,3.14-1.74,5.48-4.32,5.48a2.3,2.3,0,0,1-2-1S6.64,13.6,6.54,14a6.67,6.67,0,0,1-.81,1.71A8,8,0,1,0,8,0"/></svg>