<svg xmlns="http://www.w3.org/2000/svg" class="icon" viewBox="0 0 15.48 20.61"><title>rockingchair</title><g id="Layer_2" data-name="Layer 2"><g id="Layer_1-2" data-name="Layer 1"><path class="cls-1" d="M15.46,19.09a.37.37,0,0,0-.47-.25,24.26,24.26,0,0,1-2.87.64l-1-5.19a16.15,16.15,0,0,0,2.82-1l-.33-.68a15.26,15.26,0,0,1-3.42,1.17V9c1.53-.2,2.71-.18,3.11.23.05.05.19.2,0,.63l.7.26a1.26,1.26,0,0,0-.19-1.41c-1.53-1.59-8.95.6-11.54,1.42C1.91,5,1.26.26.34,0L.08.69c.61.56,1.4,7.2,1.82,13.3a.38.38,0,0,0,.26.33,14.36,14.36,0,0,0,2.27.44l-.92,4.74a24.63,24.63,0,0,1-3-.66.37.37,0,0,0-.22.71,27.5,27.5,0,0,0,7.48,1,27.51,27.51,0,0,0,7.48-1A.37.37,0,0,0,15.46,19.09Zm-6-5.2a17.36,17.36,0,0,1-3.34.23l-.43-4.2C7,9.59,8.32,9.29,9.49,9.1Zm-7.07-3c.79-.25,1.66-.51,2.57-.76l.41,4a16.17,16.17,0,0,1-2.77-.42C2.56,12.76,2.49,11.82,2.42,10.88Zm1.84,8.74.93-4.78c.45,0,.92.06,1.44.06a17.6,17.6,0,0,0,3.82-.42l.94,5.12a26.44,26.44,0,0,1-3.64.26A26.36,26.36,0,0,1,4.25,19.62Z"/></g></g></svg>