<svg xmlns="http://www.w3.org/2000/svg" class="icon" viewBox="0 0 19.75 19.75"><title>safe</title><g id="Layer_2" data-name="Layer 2"><g id="Layer_1-2" data-name="Layer 1"><path class="cls-1" d="M19.38,0H.38A.38.38,0,0,0,0,.38v19a.38.38,0,0,0,.38.38h19a.38.38,0,0,0,.38-.37V.38A.38.38,0,0,0,19.38,0ZM19,19H.75V.75H19Z"/><path class="cls-1" d="M2.68,17.44H17.07a.38.38,0,0,0,.38-.37V2.68a.38.38,0,0,0-.37-.37H2.68a.38.38,0,0,0-.37.38V17.07A.38.38,0,0,0,2.68,17.44Zm14-14.38V16.69H3.06V15.24H4V13.16H3.06V6.59H4V4.51H3.06V3.06Z"/><path class="cls-1" d="M9.88,14A4.15,4.15,0,1,0,5.72,9.88,4.16,4.16,0,0,0,9.88,14Zm0-7.56a3.4,3.4,0,1,1-3.4,3.4A3.41,3.41,0,0,1,9.88,6.47Z"/><path class="cls-1" d="M9.88,12.2A2.32,2.32,0,1,0,7.55,9.88,2.33,2.33,0,0,0,9.88,12.2Zm0-3.89A1.57,1.57,0,1,1,8.3,9.88,1.57,1.57,0,0,1,9.88,8.3Z"/></g></g></svg>