<svg xmlns="http://www.w3.org/2000/svg" class="icon" viewBox="0 0 14.65 19.46"><title>shower</title><g id="Layer_2" data-name="Layer 2"><g id="Layer_1-2" data-name="Layer 1"><path class="cls-1" d="M8.71,10.64a.37.37,0,0,1-.26-.11.33.33,0,0,1-.11-.26A.39.39,0,0,1,8.45,10,.38.38,0,0,1,9,10a.38.38,0,0,1,.11.27.37.37,0,0,1-.37.37Z"/><path class="cls-1" d="M8.33,16.88a.38.38,0,0,1,.38-.38h0a.38.38,0,0,1,.38.38h0a.37.37,0,0,1-.38.37h0A.37.37,0,0,1,8.33,16.88Zm0-2.2a.38.38,0,0,1,.38-.38h0a.38.38,0,0,1,.38.38h0a.38.38,0,0,1-.38.37h0A.38.38,0,0,1,8.33,14.68Zm0-2.21a.37.37,0,0,1,.38-.37h0a.37.37,0,0,1,.38.37h0a.38.38,0,0,1-.38.38h0A.38.38,0,0,1,8.33,12.47Z"/><path class="cls-1" d="M8.71,19.46a.38.38,0,0,1-.37-.38.36.36,0,0,1,.11-.26.37.37,0,0,1,.52,0,.36.36,0,0,1,.11.26.38.38,0,0,1-.37.38Z"/><path class="cls-1" d="M10.42,10.64a.37.37,0,0,1-.26-.11.33.33,0,0,1-.11-.26.39.39,0,0,1,0-.15l.08-.12a.39.39,0,0,1,.53,0,.4.4,0,0,1,.12.27.34.34,0,0,1-.12.26.26.26,0,0,1-.12.08A.33.33,0,0,1,10.42,10.64Z"/><path class="cls-1" d="M10,16.88a.37.37,0,0,1,.38-.37h0a.37.37,0,0,1,.38.37h0a.38.38,0,0,1-.38.38h0A.38.38,0,0,1,10,16.88Zm0-2.2a.38.38,0,0,1,.38-.38h0a.38.38,0,0,1,.38.38h0a.38.38,0,0,1-.38.37h0A.38.38,0,0,1,10,14.68Zm0-2.21a.37.37,0,0,1,.38-.37h0a.37.37,0,0,1,.38.37h0a.38.38,0,0,1-.38.38h0A.38.38,0,0,1,10,12.47Z"/><path class="cls-1" d="M10.42,19.46a.31.31,0,0,1-.14,0,.35.35,0,0,1-.12-.08.33.33,0,0,1-.11-.27.37.37,0,0,1,.63-.26.37.37,0,0,1,.12.26.34.34,0,0,1-.12.27A.35.35,0,0,1,10.42,19.46Z"/><path class="cls-1" d="M12.13,10.64a.41.41,0,0,1-.27-.11.37.37,0,0,1-.08-.12.33.33,0,0,1,0-.14.37.37,0,0,1,.64-.27.46.46,0,0,1,.09.12.79.79,0,0,1,0,.15.33.33,0,0,1-.11.26A.37.37,0,0,1,12.13,10.64Z"/><path class="cls-1" d="M11.75,16.88a.37.37,0,0,1,.38-.37h0a.37.37,0,0,1,.38.37h0a.38.38,0,0,1-.38.38h0A.38.38,0,0,1,11.75,16.88Zm0-2.2a.38.38,0,0,1,.38-.38h0a.38.38,0,0,1,.38.38h0a.38.38,0,0,1-.38.37h0A.38.38,0,0,1,11.75,14.68Zm0-2.21a.37.37,0,0,1,.38-.37h0a.37.37,0,0,1,.38.37h0a.38.38,0,0,1-.38.38h0A.38.38,0,0,1,11.75,12.47Z"/><path class="cls-1" d="M12.13,19.46a.4.4,0,0,1-.27-.11.39.39,0,0,1-.11-.27.36.36,0,0,1,.11-.26.39.39,0,0,1,.53,0,.36.36,0,0,1,.11.26.35.35,0,0,1-.11.27A.36.36,0,0,1,12.13,19.46Z"/><path class="cls-1" d="M13.84,10.64a.41.41,0,0,1-.27-.11.38.38,0,0,1-.08-.12.35.35,0,0,1,0-.14.38.38,0,0,1,.1-.27A.39.39,0,0,1,14,9.92a.37.37,0,0,1,.12.08.39.39,0,0,1,.11.27.69.69,0,0,1,0,.14.27.27,0,0,1-.09.12A.35.35,0,0,1,13.84,10.64Z"/><path class="cls-1" d="M13.47,16.88a.36.36,0,0,1,.37-.37h0a.37.37,0,0,1,.38.37h0a.38.38,0,0,1-.38.38h0A.37.37,0,0,1,13.47,16.88Zm0-2.2a.37.37,0,0,1,.37-.38h0a.38.38,0,0,1,.38.38h0a.38.38,0,0,1-.38.37h0A.37.37,0,0,1,13.47,14.68Zm0-2.21a.36.36,0,0,1,.37-.37h0a.37.37,0,0,1,.38.37h0a.38.38,0,0,1-.38.38h0A.37.37,0,0,1,13.47,12.47Z"/><path class="cls-1" d="M13.84,19.46a.4.4,0,0,1-.27-.11.38.38,0,0,1-.1-.27.32.32,0,0,1,0-.14.36.36,0,0,1,.08-.12.37.37,0,0,1,.41-.08.25.25,0,0,1,.12.08.36.36,0,0,1,.11.26.38.38,0,0,1-.11.27.35.35,0,0,1-.12.08A.31.31,0,0,1,13.84,19.46Z"/><path class="cls-1" d="M11.65,4.31V.38A.38.38,0,0,0,11.28,0H5.76A5.77,5.77,0,0,0,0,5.76V19.38H.75V5.76a5,5,0,0,1,5-5H10.9V4.31a3,3,0,0,0-3,2.84.38.38,0,0,0,.38.38h6a.38.38,0,0,0,.38-.37A3,3,0,0,0,11.65,4.31Zm-3,2.46C8.83,6.16,9.34,5,11.28,5s2.45,1.12,2.58,1.73Z"/></g></g></svg>