<svg xmlns="http://www.w3.org/2000/svg" class="icon" viewBox="0 0 14.52 21.75"><title>skincare</title><g id="Layer_2" data-name="Layer 2"><g id="Layer_1-2" data-name="Layer 1"><path class="cls-1" d="M11.66,7.23H10.36V4.78A.38.38,0,0,0,10,4.41H9V2.5h1.63c1.39,0,1.39.6,1.39.8a.38.38,0,0,0,.38.38h1.19A.37.37,0,0,0,14,3.35,3.26,3.26,0,0,0,13.28,1a3.31,3.31,0,0,0-2.61-1H3.13a.38.38,0,0,0-.37.38V2.12a.38.38,0,0,0,.38.38H5.45V4.41H4.53a.38.38,0,0,0-.37.38V7.23H2.86A2.86,2.86,0,0,0,0,10.09V21.37a.38.38,0,0,0,.38.38H14.14a.38.38,0,0,0,.38-.37V10.09A2.86,2.86,0,0,0,11.66,7.23ZM3.51,1.75v-1h7.17a2.61,2.61,0,0,1,2,.73,2.36,2.36,0,0,1,.54,1.45h-.49c-.13-.51-.58-1.18-2.09-1.18h-2a.38.38,0,0,0-.37.38V4.41H6.2V2.5h1V1.75ZM4.9,5.16H9.61V7.23H4.9ZM13.77,19.1h-5v-6h5Zm0-6.76H8.38a.38.38,0,0,0-.37.38v6.76a.38.38,0,0,0,.38.38h5.38V21H.75V10.09A2.11,2.11,0,0,1,2.86,8h8.79a2.11,2.11,0,0,1,2.11,2.11Z"/></g></g></svg>