<svg xmlns="http://www.w3.org/2000/svg" class="icon" viewBox="0 0 21.75 15.71"><title>smarttv</title><g id="Layer_2" data-name="Layer 2"><g id="Layer_1-2" data-name="Layer 1"><path class="cls-1" d="M16.52,6.41v.38h.75V6.41a1.93,1.93,0,0,0-1.93-1.93H15v.75h.38A1.18,1.18,0,0,1,16.52,6.41Z"/><path class="cls-1" d="M18.64,6.41v.38h.75V6.41a4.06,4.06,0,0,0-4.06-4.06H15v.75h.38A3.31,3.31,0,0,1,18.64,6.41Z"/><path class="cls-1" d="M15.34,0H15V.75h.38A5.67,5.67,0,0,1,21,6.41v.38h.75V6.41A6.42,6.42,0,0,0,15.34,0Z"/><path class="cls-1" d="M21,12.48H.75V.75H14.08V0H.38A.38.38,0,0,0,0,.38V12.86a.38.38,0,0,0,.38.38H8.74V15H6.41v.75h8.93V15H12.9V13.23h8.48a.38.38,0,0,0,.38-.37v-5H21ZM12.15,15H9.49V13.23h2.66Z"/></g></g></svg>