<svg xmlns="http://www.w3.org/2000/svg" class="icon" viewBox="0 0 20.75 20.75"><title>wifi</title><g id="Layer_2" data-name="Layer 2"><g id="Layer_1-2" data-name="Layer 1"><path class="cls-1" d="M10.38,20.75A10.38,10.38,0,1,1,20.75,10.38,10.39,10.39,0,0,1,10.38,20.75Zm0-20A9.63,9.63,0,1,0,20,10.38,9.64,9.64,0,0,0,10.38.75Z"/><path class="cls-1" d="M8.5,15.58H7.75v-.37a1.34,1.34,0,0,0-1.33-1.33H6v-.75h.38A2.09,2.09,0,0,1,8.5,15.21Z"/><path class="cls-1" d="M10.83,15.58h-.75v-.37a3.67,3.67,0,0,0-3.67-3.67H6v-.75h.38a4.42,4.42,0,0,1,4.42,4.42Z"/><path class="cls-1" d="M13.42,15.58h-.75v-.37A6.27,6.27,0,0,0,6.41,8.95H6V8.2h.38a7,7,0,0,1,7,7Z"/><path class="cls-1" d="M16.45,15.58H15.7v-.37A9.3,9.3,0,0,0,6.41,5.92H6V5.17h.38a10.05,10.05,0,0,1,10,10Z"/></g></g></svg>