<svg xmlns="http://www.w3.org/2000/svg" class="icon" viewBox="0 0 21.75 17.56"><title>workdesk</title><g id="Layer_2" data-name="Layer 2"><g id="Layer_1-2" data-name="Layer 1"><path class="cls-1" d="M17.13,6.18A3.09,3.09,0,1,0,14,3.09,3.09,3.09,0,0,0,17.13,6.18Zm0-5.43a2.34,2.34,0,1,1-2.34,2.34A2.34,2.34,0,0,1,17.13.75Z"/><path class="cls-1" d="M17.81,3.39v-2h-.75V3h-.88v.75h1.25A.38.38,0,0,0,17.81,3.39Z"/><rect class="cls-1" x="1.67" y="6.2" width="4.25" height="0.75"/><rect class="cls-1" x="1.67" y="4.43" width="4.25" height="0.75"/><path class="cls-1" d="M21.38,8.19H.38A.38.38,0,0,0,0,8.56v9H.75V11.88H12.7v5.3a.38.38,0,0,0,.38.38h8.3a.38.38,0,0,0,.38-.37V8.56A.38.38,0,0,0,21.38,8.19ZM.75,11.13V8.94H12.7v2.2ZM21,16.81H13.45V11.88H21Zm-7.55-5.68V8.94H21v2.2Z"/><rect class="cls-1" x="14.36" y="13.34" width="0.75" height="2.14"/><rect class="cls-1" x="15.95" y="9.63" width="2.36" height="0.75"/></g></g></svg>